<svg xmlns="http://www.w3.org/2000/svg" width="27" height="27" viewBox="0 0 27 27"><defs><style>.a{opacity:0.8;}.b{fill:#4d40ff;}</style></defs><g class="a"><path class="b" d="M70.136,23.318H66.455A2.457,2.457,0,0,1,64,20.864V2.455A2.457,2.457,0,0,1,66.455,0h3.682a2.457,2.457,0,0,1,2.455,2.455V20.864A2.457,2.457,0,0,1,70.136,23.318Z" transform="translate(-49.273)"/><path class="b" d="M262.142,143.954h-3.694A2.451,2.451,0,0,1,256,141.5V130.448A2.451,2.451,0,0,1,258.449,128h3.694a2.451,2.451,0,0,1,2.449,2.449V141.5A2.451,2.451,0,0,1,262.142,143.954Z" transform="translate(-252.318 -120.635)"/><path class="b" d="M.614,426.667H26.386a.613.613,0,0,1,.614.614v1.227a.613.613,0,0,1-.614.614H.614A.613.613,0,0,1,0,428.508v-1.227A.613.613,0,0,1,.614,426.667Z" transform="translate(0 -402.122)"/></g></svg>