<svg xmlns="http://www.w3.org/2000/svg" width="27" height="27" viewBox="0 0 27 27"><defs><style>.a{opacity:0.8;}.b{fill:#4d40ff;}</style></defs><g class="a"><path class="b" d="M66.455,23.318h3.682a2.457,2.457,0,0,0,2.455-2.455V2.455A2.457,2.457,0,0,0,70.136,0H66.455A2.457,2.457,0,0,0,64,2.455V20.864A2.457,2.457,0,0,0,66.455,23.318Z" transform="translate(-60.318)"/><path class="b" d="M258.449,143.954h3.694a2.451,2.451,0,0,0,2.449-2.449V130.448A2.451,2.451,0,0,0,262.142,128h-3.694A2.451,2.451,0,0,0,256,130.448V141.5A2.451,2.451,0,0,0,258.449,143.954Z" transform="translate(-241.273 -120.635)"/><path class="b" d="M26.386,426.667H.614a.613.613,0,0,0-.614.614v1.227a.613.613,0,0,0,.614.614H26.386a.613.613,0,0,0,.614-.614v-1.227A.613.613,0,0,0,26.386,426.667Z" transform="translate(0 -402.122)"/></g></svg>