<svg xmlns="http://www.w3.org/2000/svg" xmlns:xlink="http://www.w3.org/1999/xlink" width="1698" height="514" viewBox="0 0 1698 514"><defs><style>.a{fill:#202563;}.b{opacity:0.28;clip-path:url(#c);}.c{opacity:0.42;}.d,.e,.f{fill:none;stroke-width:3px;}.d,.e,.f,.g{stroke:#fff;}.d,.e{stroke-miterlimit:10;}.e,.f{stroke-linecap:round;}.f{stroke-linejoin:round;}.g,.h{fill:#4d4d4d;}.h{font-size:17px;font-family:SegoeUI, Segoe UI;}.i{filter:url(#a);}</style><filter id="a" x="-75" y="-45" width="1848" height="664" filterUnits="userSpaceOnUse"><feOffset dy="30" input="SourceAlpha"/><feGaussianBlur stdDeviation="25" result="b"/><feFlood flood-color="#4d40ff" flood-opacity="0.161"/><feComposite operator="in" in2="b"/><feComposite in="SourceGraphic"/></filter><clipPath id="c"><g class="i" transform="matrix(1, 0, 0, 1, 0, 0)"><rect class="a" width="1698" height="514" transform="translate(111 2438)"/></g></clipPath></defs><g class="b" transform="translate(-111 -2438)"><g class="c" transform="translate(3985.445 5443.582) rotate(151)"><g transform="matrix(-0.799, -0.602, 0.602, -0.799, 971.986, 3773.135)"><g transform="translate(4.51 1.594)"><path class="d" d="M750.048,91.564l-24.182-14.55a5.4,5.4,0,0,1-1.842-7.408h0a5.4,5.4,0,0,1,7.407-1.842l24.183,14.55a5.4,5.4,0,0,1,1.842,7.408h0A5.4,5.4,0,0,1,750.048,91.564Z" transform="translate(-717.618 -3.955)"/><path class="d" d="M745.346,99.38,721.163,84.83a5.4,5.4,0,0,1-1.842-7.408h0a5.4,5.4,0,0,1,7.408-1.842l24.182,14.55a5.4,5.4,0,0,1,1.843,7.408h0A5.4,5.4,0,0,1,745.346,99.38Z" transform="translate(-718.547 -2.409)"/><path class="d" d="M732.291,50.03h0c.01.092.017.184.026.275a73.143,73.143,0,0,1-3.234,27.32l26,15.345a73.178,73.178,0,0,1,22.353-16.038c.085-.036.17-.073.254-.11h0q1.326-.575,2.6-1.264A32.576,32.576,0,1,0,732.14,47.141C732.147,48.107,732.2,49.07,732.291,50.03Z" transform="translate(-716.464 -14.361)"/><path class="d" d="M721.89,83.941A12.866,12.866,0,0,0,743.127,96.72Z" transform="translate(-717.978 -0.603)"/><path class="d" d="M735.9,76.145l13.817-23.413a4.847,4.847,0,1,0-6.637,1.71l9.272,5.472" transform="translate(-715.115 -8.219)"/><path class="d" d="M744.417,80.356l13.817-23.413a4.846,4.846,0,1,1,1.71,6.637l-9.272-5.471" transform="translate(-713.432 -6.413)"/></g><g transform="translate(76.951 50.932)"><line class="e" x2="7.83" y2="4.621" transform="translate(7.887 9.789)"/><line class="e" x2="9.073" y2="0.586" transform="translate(14.069)"/><line class="e" x2="4.899" y2="7.66" transform="translate(0 17.618)"/></g><line class="e" x1="7.83" y1="4.621" transform="translate(4.284 13.182)"/><line class="e" x1="4.899" y1="7.66" transform="translate(12.797)"/><line class="e" x1="9.073" y1="0.586" transform="translate(0 27.905)"/></g><g transform="translate(1444.467 3692.183)"><line class="e" x1="2.659" y1="11.495" transform="translate(19.639)"/><line class="e" x1="7.565" y1="9.055" transform="translate(0 5.384)"/><line class="e" y1="11.457" x2="2.82" transform="translate(36.713 0.451)"/></g><g transform="translate(831.514 3389.605)"><g transform="translate(37.899)"><rect class="d" width="13.163" height="33.047" rx="1" transform="translate(0 42.218) rotate(-22.301)"/><rect class="d" width="13.163" height="44.065" rx="1" transform="translate(16.341 23.606) rotate(-22.301)"/><rect class="d" width="13.163" height="55.084" rx="1" transform="translate(32.683 4.995) rotate(-22.301)"/></g><g transform="translate(0 7.431)"><line class="f" x2="36.24" y2="88.357"/><line class="f" x1="105.995" y2="43.474" transform="translate(15.306 36.298)"/></g></g><circle class="f" cx="22.635" cy="22.635" r="22.635" transform="translate(1140.522 3947.744)"/><circle class="f" cx="22.635" cy="22.635" r="22.635" transform="translate(1406.714 3615.891)"/><path class="f" d="M69.3,274.046a22.635,22.635,0,0,1-22.635-22.635,22.635,22.635,0,0,1-22.635,22.635,22.635,22.635,0,0,1,22.635,22.635A22.635,22.635,0,0,1,69.3,274.046Z" transform="translate(473.379 3372.449)"/><circle class="f" cx="18.358" cy="18.358" r="18.358" transform="translate(1426.486 3899.161)"/><circle class="f" cx="18.358" cy="18.358" r="18.358" transform="translate(587.717 3460.86)"/><circle class="f" cx="9.053" cy="9.053" r="9.053" transform="translate(1291.376 3628.427) rotate(-45)"/><circle class="f" cx="9.053" cy="9.053" r="9.053" transform="translate(875.711 3348.539)"/><circle class="f" cx="9.053" cy="9.053" r="9.053" transform="translate(1344.696 4056.496)"/><circle class="f" cx="9.053" cy="9.053" r="9.053" transform="matrix(0.925, -0.381, 0.381, 0.925, 681.808, 3720.501)"/><circle class="f" cx="9.053" cy="9.053" r="9.053" transform="translate(1224.34 3626.646)"/><g transform="translate(750.718 3503.357)"><circle class="f" cx="9.053" cy="9.053" r="9.053"/></g><circle class="f" cx="9.053" cy="9.053" r="9.053" transform="matrix(0.122, -0.993, 0.993, 0.122, 1509.245, 4016.4)"/><circle class="f" cx="9.053" cy="9.053" r="9.053" transform="translate(1574.604 4135.85) rotate(-22.5)"/><g transform="translate(640.117 3336.445)"><ellipse class="f" cx="25.861" cy="54.562" rx="25.861" ry="54.562" transform="translate(9.761 22.52) rotate(-25.81)"/><ellipse class="f" cx="25.861" cy="54.562" rx="25.861" ry="54.562" transform="translate(0 80.868) rotate(-84.476)"/><ellipse class="f" cx="54.562" cy="25.861" rx="54.562" ry="25.861" transform="matrix(0.543, -0.84, 0.84, 0.543, 5.473, 92.183)"/><path class="f" d="M255.019,69.147a6.844,6.844,0,1,1,3.181-9.141A6.846,6.846,0,0,1,255.019,69.147Z" transform="translate(-195.241 -2.607)"/></g><g transform="translate(918.161 3909.912)"><g transform="translate(82.902)"><path class="e" d="M1020.737,52.234l31.169-28.679a8.1,8.1,0,0,1,11.446.477h0a8.1,8.1,0,0,1-.477,11.446l-31.169,28.679a8.1,8.1,0,0,1-11.446-.477h0A8.1,8.1,0,0,1,1020.737,52.234Z" transform="translate(-1018.121 -21.416)"/></g><circle class="e" cx="34.805" cy="34.805" r="34.805" transform="translate(0 67.745) rotate(-34.235)"/><circle class="e" cx="25.113" cy="25.113" r="25.113" transform="matrix(0.806, -0.592, 0.592, 0.806, 13.251, 71.556)"/><line class="e" y1="9.437" x2="10.083" transform="translate(73.768 43.718)"/></g><g transform="translate(493.463 3422.621)"><g transform="translate(68.504 124.378)"><g transform="translate(0 0)"><path class="e" d="M3.9,0H41.857a3.9,3.9,0,0,1,3.9,3.9v8.761a0,0,0,0,1,0,0H0a0,0,0,0,1,0,0V3.9A3.9,3.9,0,0,1,3.9,0Z" transform="translate(0 16.597) rotate(-21.268)"/></g></g><circle class="d" cx="45.708" cy="45.708" r="45.708" transform="matrix(0.902, -0.432, 0.432, 0.902, 0, 39.45)"/><path class="f" d="M107.946,178.814l-53.818-73.9-6.682-8.951a56.877,56.877,0,0,0,66.968,91.952l-6.574-9.029" transform="translate(-20.08 -80.908)"/><path class="d" d="M34.817,129.823a45.667,45.667,0,0,0,46.189-33.64,45.664,45.664,0,0,0-46.189,33.64Z" transform="translate(-17.951 -80.875)"/><path class="d" d="M69.878,177.965a45.667,45.667,0,0,0,46.191-33.64,45.667,45.667,0,0,0-46.191,33.64Z" transform="translate(-11.018 -71.356)"/><ellipse class="d" cx="22.854" cy="45.708" rx="22.854" ry="45.708" transform="matrix(0.808, -0.589, 0.589, 0.808, 15.575, 37.465)"/><line class="d" y1="53.818" x2="73.896" transform="translate(24.01 34.049)"/><line class="d" x2="7.503" y2="18.803" transform="translate(82.056 113.827)"/><line class="e" y1="21.663" x2="54.285" transform="translate(68.055 133.695)"/></g><g transform="translate(1882.36 4296.401) rotate(137)"><g transform="translate(51.482 38.269)"><path class="g" d="M1143.062,491.915c.141.18.284.359.436.588.475.655,1.217.709,1.928.874.442.115.853.212,1.264.309a1.85,1.85,0,0,1,.412.226.551.551,0,0,0-.149.162.184.184,0,0,0,0,.129,1.61,1.61,0,0,1-.268.212c.052.25.073.48.116.68a.44.44,0,0,1-.237.491.466.466,0,0,0-.149.162.988.988,0,0,1-.937.378,5.147,5.147,0,0,1-1.6-.527,1.326,1.326,0,0,0-.722-.214,1.308,1.308,0,0,1-.492-.235,6.89,6.89,0,0,1-.665-.564,4.681,4.681,0,0,1-1.185-1.551,2.052,2.052,0,0,0-.163-.278,2.46,2.46,0,0,0-.172-.329c0-.131-.032-.28-.043-.461-.042-.068-.012-.178-.054-.248a7.132,7.132,0,0,1-.042-1.452,4.181,4.181,0,0,1,.379-1.3,4.786,4.786,0,0,1,.767-1.567c.347-.464.714-.957,1.059-1.419.1-.151.169-.322.267-.472.335-.514.681-.977,1.018-1.491.6-.855,1.156-1.7,1.739-2.526.444-.613.87-1.2,1.295-1.782q.862-1.117,1.722-2.236c.365-.493.732-.986,1.128-1.459.624-.757,1.228-1.482,1.861-2.188.188-.222.407-.424.615-.675a.92.92,0,0,1,1.02-.109c.2.089.412.228.612.315a8.952,8.952,0,0,1,.876.443c.412.226.8.484,1.2.74.09.059.231.108.322.167a7.771,7.771,0,0,1,.755.493c.341.268.644.6.988.864l.3.327c.039.069.11.159.071.219-.048.271.153.359.285.487s.231.24.393.387a2.279,2.279,0,0,1-.2.172.035.035,0,0,1-.011-.05l-.45.093.012.05a1.065,1.065,0,0,1-.312-.117c-.03-.019-.09-.059-.1-.109l-.04.061a1.561,1.561,0,0,1-.371-.158,7.748,7.748,0,0,0-1.125-.52,3.65,3.65,0,0,1-.592-.216c-.061-.039-.1-.109-.132-.128a5.632,5.632,0,0,1-1.127-.65c-.4-.177-.743-.315-1.084-.452a.216.216,0,0,0-.339.122,4.443,4.443,0,0,1-.872,1.07c-.148.161-.267.343-.416.5s-.248.313-.4.474c-.059.09-.057.22-.1.28a4.815,4.815,0,0,1-.365.623,11.016,11.016,0,0,1-.551.976c-.1.151-.259.262-.357.413-.138.211-.247.442-.385.653-.041.061-.11.1-.119.181l-.85,1.3c-.078.121-.207.253-.247.313-.309.144-.242-.158-.362-.236-.149.291.044.459.186.638a.456.456,0,0,0,.162.148c.491.236,1.053.431,1.525.7a5.01,5.01,0,0,1,.856.6c.373.287.715.555,1.037.853.234.237.5.5.727.734a.365.365,0,0,1-.377.313,1.468,1.468,0,0,0-.428.194l-.3.062c-.019.03-.029.11-.048.14l-.02.031c-.31.012-.589.174-.95.067s-.574-.375-.934-.481a6.249,6.249,0,0,1-1.952-1.234l-.514-.337a1.43,1.43,0,0,0-.329.043.256.256,0,0,1-.049.14l-.029-.019c-.158.242-.267.472-.425.714-.019.03-.008.08-.029.11l-.03-.019c-.543.895-1.085,1.789-1.668,2.745.073.219-.126.39-.295.583.011.049-.008.079,0,.131-.2.3-.375.573-.553.844l.06.038a.514.514,0,0,0-.057.222,10.828,10.828,0,0,0-.473.984,3.463,3.463,0,0,0-.164.582c.01.05-.06.09-.06.09C1143.023,491.847,1143.032,491.9,1143.062,491.915Zm4.507-9.983a3.551,3.551,0,0,1,.017-.42.271.271,0,0,0-.109.1,1.6,1.6,0,0,0,.042.329ZM1142,490.575c.01.05.031.15.053.25l.049-.011a1.938,1.938,0,0,0,.151.229.131.131,0,0,1,.091-.071.173.173,0,0,0-.071-.09c-.042-.07,0-.131-.012-.18a.13.13,0,0,1,.089-.071C1142.24,490.6,1142.111,490.6,1142,490.575Zm.9,1.062.06-.09c-.021-.1-.062-.17-.083-.27-.09.07-.179.141-.289.243C1142.7,491.549,1142.79,491.609,1142.9,491.638Z" transform="translate(-1140.33 -472.935)"/><path class="g" d="M1156.9,483.624c.17-.062.033.28.262.128a.131.131,0,0,0,.08.01c.132.129.341.137.292.407.091-.069.131,0,.181-.011.209.007.4.046.473.266.01.05.2-.042.23.108.16-.111.141.049.251.078a1.749,1.749,0,0,1,.512.335c.031.02,0,.131.011.181.15-.162.19-.092.281-.032.181.119.343.266.553.4.322.168.664.3.985.472a6.959,6.959,0,0,0,1.045.642c.03.019.022.1.031.15.079-.121.14-.081.2-.042.462.346,1.074.531,1.211,1.309a.593.593,0,0,1-.186.483c-.139.212-.228.412-.365.623-.315.614-.587.436-.787.347a12.771,12.771,0,0,1-2.3-1.29,1.189,1.189,0,0,0-.283-.229c-.292-.147-.533-.3-.824-.453a2.364,2.364,0,0,0-.462-.216c-.061-.04-.091-.059-.05-.12-.012-.05-.042-.069-.022-.1l-.059.091a.078.078,0,0,1-.1.02l-1.389-.909c.02-.03.071-.04.091-.07l.019-.03c-.05.01-.08-.01-.1.019a.127.127,0,0,1-.011.08,18.387,18.387,0,0,1-2.393-1.479,11.377,11.377,0,0,1-.867-.783c-.2-.218.156-.5.305-.662a2.233,2.233,0,0,1,.813-.719.974.974,0,0,1,.731,0,4,4,0,0,0,.582.3l.907.593C1156.849,483.5,1156.9,483.5,1156.9,483.624Zm-2.785,4.257c.189-.092.053.249.261.128.05-.012.1-.022.1-.022.132.129.321.168.274.437.109-.1.129,0,.18-.011a.393.393,0,0,1,.472.267c.03.019.2-.043.231.107.179-.141.16.019.251.079a1.683,1.683,0,0,1,.532.3c.031.02,0,.131-.007.211.149-.162.21-.121.3-.062a2.141,2.141,0,0,0,.554.4c.3.2.662.3.964.5.371.158.654.515,1.046.642.049-.011.041.069.052.12.079-.121.12-.05.18-.011.464.345,1.095.5,1.233,1.279a.632.632,0,0,1-.187.482c-.138.212-.247.442-.385.653-.3.584-.566.406-.768.319a10.7,10.7,0,0,1-2.3-1.291l-.3-.2c-.271-.178-.532-.305-.8-.484-.17-.068-.291-.147-.462-.216-.079-.01-.09-.059-.051-.12-.01-.05-.041-.069-.02-.1l-.06.091a.078.078,0,0,1-.1.02c-.453-.3-.9-.592-1.407-.878l.019-.03c.019-.03.071-.041.09-.071a.123.123,0,0,0-.08-.01c-.02.03.01.05-.01.08a12.154,12.154,0,0,1-2.393-1.48,5.933,5.933,0,0,1-.867-.782c-.2-.219.155-.5.3-.664.228-.283.545-.635.794-.687a.894.894,0,0,1,.75-.026c.182.119.382.206.563.325.3.2.624.365.926.564C1154.083,487.731,1154.115,487.751,1154.115,487.881Zm-.318-4.39c-.068.17.159-.111.131,0l.049-.011.04-.06C1153.946,483.33,1153.847,483.481,1153.8,483.491Zm-2.765,4.226c-.068.171.16-.111.11.03.021-.031.05-.012.07-.042l.02-.029C1151.18,487.555,1151.082,487.707,1151.031,487.717Zm3.451-4.812-.04.06c.05-.01.071-.04.12-.05A.131.131,0,0,0,1154.482,482.9Zm-2.785,4.257-.021.03c.052-.01.071-.039.121-.051C1151.748,487.152,1151.717,487.131,1151.7,487.161Zm2.895-4.357.019-.03Zm-.018.291-.011-.05c-.019.03-.069.041-.09.07a.131.131,0,0,0-.07.042l-.019.03c.019-.03.069-.041.089-.072A.079.079,0,0,1,1154.574,483.095Zm-2.766,4.226-.03-.019a.121.121,0,0,0-.069.039.13.13,0,0,1-.07.041l-.021.03c.021-.03.07-.041.09-.071S1151.76,487.331,1151.809,487.321Zm2.736-4.115a.036.036,0,0,1,.052-.011c.019-.03.008-.08.028-.111l-.049.012A.137.137,0,0,1,1154.544,483.205Zm-2.766,4.226.052-.011c.019-.03.008-.08.029-.11a.036.036,0,0,1-.05.011A.132.132,0,0,1,1151.779,487.431Zm3.214-4.58a.384.384,0,0,1,.038-.19.13.13,0,0,1-.07.041.566.566,0,0,0-.038.19A.126.126,0,0,1,1154.992,482.851Zm-2.766,4.227a.292.292,0,0,1,.018-.162l-.049.011a.369.369,0,0,0-.039.19A.125.125,0,0,1,1152.227,487.077Zm2.848-3.957c.06.039.05-.01.04-.061.019-.03.059-.09.029-.11-.011-.049-.042-.2-.161-.018-.1.151.031.15.062.17Zm-2.786,4.257c.061.04.071-.041.04-.061.041-.061.06-.09.049-.14s-.042-.2-.16-.019.031.15.042.2Zm2.893-4.617.02-.031a.036.036,0,0,0-.05.011l-.02.03A.035.035,0,0,0,1155.182,482.76Zm-2.766,4.226.02-.031-.05.011-.038.06C1152.4,487.015,1152.4,487.015,1152.416,486.985Zm2.105-3.019-.02.03.031.019A.034.034,0,0,1,1154.521,483.966Zm-2.785,4.256.03.02Zm3.339-4.971.03.019a.035.035,0,0,0-.011-.049Zm-2.786,4.256a.035.035,0,0,0,.05-.011.035.035,0,0,1-.011-.049l-.019.03Zm3.233-4.61c-.03-.02-.041-.069-.071-.089l-.07.039c-.029.11.021.1.07.09A.127.127,0,0,0,1155.523,482.9Zm-2.785,4.256c-.011-.049-.022-.1-.052-.119a.348.348,0,0,0-.09.071c-.008.079.021.1.091.059Zm2.915-4.257c-.011-.05-.031-.02-.031-.02-.019.031-.019.031-.008.081a.035.035,0,0,1,.049-.011Zm-.139.212.02-.031a.035.035,0,0,1-.05.011Zm-2.627,4.014c-.03-.02-.03-.02-.05.011a.036.036,0,0,0,.011.05l.049-.011A.037.037,0,0,1,1152.888,487.121Zm-.158.242.021-.03-.031-.02C1152.75,487.333,1152.75,487.333,1152.73,487.363Zm2.677-4.026-.03-.019h0a.035.035,0,0,0,.01.049Zm-2.785,4.257c.019-.031.019-.031-.01-.05-.02.031-.02.031-.01.08Zm.029.02-.019.03Zm3-4.459.049-.011.039-.06a.035.035,0,0,0-.05.011Zm-.2.3-.021.03.049-.01Zm-2.568,3.924a.035.035,0,0,0,.049-.011l.02-.029-.03-.02Zm-.218.333-.019.03a.035.035,0,0,1,.049-.011C1152.672,487.713,1152.693,487.684,1152.672,487.713Zm2.955-4.318c.02-.03.02-.03.01-.08l-.019.03-.02.03Zm-.267.343-.019.03Zm-2.5,3.884a.035.035,0,0,0-.01-.05l-.02.03-.019.03A.034.034,0,0,1,1152.862,487.622Zm3.033-4.571a.034.034,0,0,1-.01-.049l-.021.03Zm-2.766,4.227-.03-.019Zm-.424.584-.02.03Zm2.992-4.508c.052-.011.1-.02.12-.05s.01-.08-.01-.052a.128.128,0,0,0-.071.041Zm-2.785,4.256c.07-.04.12-.05.139-.08l-.01-.05a.131.131,0,0,0-.071.041Zm.208-.252-.019.03Zm2.667-3.945.019-.03-.049.011Zm-1,1.46a.035.035,0,0,0,.011.049A.035.035,0,0,0,1154.789,484.874Zm-1.786,2.8.019-.03-.03-.02Zm-.979,1.429-.021.03a.036.036,0,0,1,.011.05C1152.034,489.15,1152.034,489.15,1152.024,489.1Zm-.049.14-.019.03Zm3.9-5.766-.139.081c.03.019.041.068.1.108l.049-.01C1155.9,483.573,1155.909,483.494,1155.877,483.473Zm-2.766,4.226a.518.518,0,0,1-.138.081c.01.05.04.069.1.11-.02.029,0,0,.049-.012C1153.114,487.83,1153.124,487.749,1153.112,487.7Zm2.145-3.21.03.02Zm-2.766,4.226-.02.031a.035.035,0,0,1,.05-.011Zm3.5-5.213-.029-.02c-.02.031-.02.031.01.05Zm-2.765,4.227a.034.034,0,0,0-.049.01l.03.02h0Zm2.856-4.3-.031-.02a.111.111,0,0,1-.008.08.123.123,0,0,1,.079.011C1156.109,483.451,1156.109,483.451,1156.079,483.432Zm-2.765,4.226a.037.037,0,0,1-.052.011.036.036,0,0,1,.012.05.116.116,0,0,0,.08.01C1153.323,487.707,1153.343,487.676,1153.313,487.657Zm2.974-4.348-.05.012a.035.035,0,0,1,.011.049l.049-.011A.035.035,0,0,0,1156.287,483.309Zm-2.764,4.226a.036.036,0,0,1-.05.012l.01.049a.036.036,0,0,0,.05-.011Zm-.3.454-.021.03Zm2.936-4.157-.011-.05-.019.03-.04.061A.111.111,0,0,0,1156.161,483.832Zm-2.764,4.226a.036.036,0,0,1-.012-.05l-.019.03-.039.061C1153.377,488.088,1153.377,488.088,1153.4,488.057Zm3-4.458-.011-.05a.11.11,0,0,1-.069.041.035.035,0,0,1,.01.05C1156.349,483.609,1156.379,483.629,1156.4,483.6Zm-2.766,4.226-.011-.049c-.019.03-.019.03-.068.039l.01.05A.125.125,0,0,0,1153.634,487.825Zm2.885-4.277.019-.03a.035.035,0,0,0-.049.011l-.02.03A.036.036,0,0,0,1156.52,483.548Zm-.376.574-.03-.019a.035.035,0,0,0,.011.049Zm-2.389,3.652-.03-.019-.019.03C1153.735,487.8,1153.735,487.8,1153.754,487.773Zm-.4.6.019-.03-.029-.02c-.02.03-.02.03-.009.079Zm2.866-4.247.019-.03c.039-.061.029-.111.049-.141a.035.035,0,0,0-.05.011A.592.592,0,0,1,1156.225,484.131Zm-2.766,4.226.019-.03c.021-.03.029-.11.048-.14l-.049.01C1153.488,488.246,1153.448,488.306,1153.459,488.357Zm3.272-4.541a1.07,1.07,0,0,1-.113-.289.126.126,0,0,0-.07.041,1.56,1.56,0,0,1,.013.309A.519.519,0,0,1,1156.731,483.816Zm-2.785,4.256a1.086,1.086,0,0,0-.113-.287l-.051.01c.022.1-.008.21.012.31C1153.846,488.093,1153.9,488.084,1153.947,488.072Zm2.189-3.741.019-.03-.03-.019-.04.061Zm-2.766,4.226-.03-.019-.02.031C1153.35,488.588,1153.35,488.588,1153.371,488.557Zm2.846-4.215-.02.03-.019.03c.019-.03.019-.03.049-.011A.034.034,0,0,1,1156.216,484.342Zm-2.785,4.256-.02.03.05-.011Zm3.062-4.549a.034.034,0,0,1-.049.01l.01.05a.036.036,0,0,1,.05-.011A.035.035,0,0,1,1156.493,484.048Zm-2.785,4.257a.035.035,0,0,0-.05.01l.03.02.05-.01Zm2.361-3.543-.019.03Zm.6-.855-.021.03Zm.208-.122-.061-.04-.019.03a.5.5,0,0,0,.062.17l.059-.091C1156.892,483.834,1156.892,483.834,1156.881,483.785Zm-2.785,4.255a.125.125,0,0,1-.041-.069l-.019.03a.465.465,0,0,0,.061.17l.06-.091Zm2.331-3.561.019-.03-.049.01a.037.037,0,0,0,.01.05Zm-2.785,4.256.039-.06-.049.011c-.019.03-.019.03-.01.08Zm3.071-4.629-.021.031Zm-.285.5a.036.036,0,0,1-.05.01l.011.05.04-.06a.034.034,0,0,1,.049-.011l.02-.031-.02.031A.034.034,0,0,0,1156.428,484.61Zm-2.481,3.723-.019.03Zm-.285.5c-.019.03-.019.03-.05.01a.035.035,0,0,0,.011.05l.04-.06.03.019.02-.03.019-.031-.019.031-.02.03Zm2.509-3.7.019-.03a.112.112,0,0,0,.011-.08c-.02.031-.02.031-.07.041C1156.142,485.112,1156.142,485.112,1156.172,485.131Zm-2.766,4.227h0c.021-.031.04-.061.01-.08l-.049.011C1153.377,489.339,1153.377,489.339,1153.406,489.358Zm3.7-5.595-.011-.05-.02.03Zm-2.775,4.175c-.02.03-.02.03.01.05a.035.035,0,0,0-.05.01l.021-.03Zm2.291-3.37a.034.034,0,0,0-.049.01l-.019.03c.03.02.03.02.049-.01Zm-2.785,4.256-.03-.019-.019.03c.01.05.03.019.03.019Zm.079-.121-.019.03Zm-.671,1.026.019-.03Zm3.991-5.838-.03-.019-.019.03A.035.035,0,0,0,1157.242,483.891Zm-.365.493-.019.03c-.02.03,0,0,.029.02Zm-2.419,3.762a.034.034,0,0,0-.01-.049l-.021.03-.02.031A.036.036,0,0,1,1154.457,488.147Zm-.346.465-.019.03-.02.03a.036.036,0,0,1,.05-.011A.035.035,0,0,1,1154.111,488.612Zm2.234-3.282c-.031-.02-.05.01-.071.041l.031.02.05-.011A.036.036,0,0,1,1156.345,485.33Zm-2.786,4.257c-.03-.02-.03-.02-.05.01a.036.036,0,0,0,.012.05.034.034,0,0,1,.049-.01Zm3.578-5.2.02-.03a.036.036,0,0,0-.05.011l-.059.09C1157.117,484.414,1157.117,484.414,1157.136,484.383Zm-.691,1.056-.03-.019.01.05Zm-2.094,3.2.04-.061c-.05.012-.05.012-.07.042l-.04.06A.116.116,0,0,0,1154.352,488.639Zm-.672,1.026-.03-.019a.035.035,0,0,0,.011.049Zm2.884-4.408-.02.031c-.019.03.012.049-.009.079l-.039.061.06-.091a.034.034,0,0,0-.012-.049l.02-.031c.031.02.031.02.08.01C1156.595,485.278,1156.595,485.278,1156.564,485.258Zm-2.766,4.227-.019.03c-.021.03-.01.08-.029.11l-.04.061.079-.121-.011-.05.019-.03.06.039Zm3.123-4.64.019-.03a.036.036,0,0,0-.04.061Zm-.365.494-.021.03Zm-2.4,3.732h0l-.03-.019.011.05Zm-.365.495-.04.06Zm3.686-5.434-.031-.02a.124.124,0,0,0-.069.039C1157.4,484.171,1157.425,484.141,1157.475,484.131Zm-.229.28a.035.035,0,0,0-.049.011c-.039.061-.069.171-.109.231a.036.036,0,0,0,.052-.011l.038-.06A.332.332,0,0,1,1157.246,484.411Zm-.759,1.229-.1.02c.011.049.011.049-.008.079.03.02.05-.01.1-.019A.117.117,0,0,1,1156.487,485.64Zm-1.8,2.746-.012-.05c-.019.03-.049.011-.068.041l-.021.03C1154.64,488.4,1154.659,488.366,1154.69,488.387Zm-.229.281-.03-.019c-.06.091-.068.17-.128.261a.035.035,0,0,1,.051-.011l.04-.06A.376.376,0,0,1,1154.462,488.668Zm-.759,1.228c-.03-.02-.05.011-.08-.01a.115.115,0,0,1-.01.08c.031.019.05-.011.08.01A.109.109,0,0,1,1153.7,489.9Zm3.1-4.61-.011-.049c-.03-.019-.1.022-.12.05l.011.05A.183.183,0,0,0,1156.8,485.286Zm-2.786,4.257a.131.131,0,0,0,.01-.08c-.049.012-.1.022-.12.052a.035.035,0,0,0,.011.05C1153.969,489.553,1154,489.572,1154.019,489.542Zm-.435.534-.02.031Zm3.466-5.232.02-.031Zm.248-.313a.077.077,0,0,0,.1-.022c.1-.02.16-.111.07-.17a1.965,1.965,0,0,0-.169.192c-.02.03-.02.03.011.049C1157.278,484.562,1157.278,484.562,1157.3,484.532Zm-2.785,4.256c.05-.01.08.01.1-.02.12-.05.18-.143.089-.2a1.911,1.911,0,0,0-.169.192c-.019.03-.019.03-.008.08Zm2.479-3.593-.03-.019-.019.03C1156.973,485.225,1156.973,485.225,1156.993,485.195Zm-2.785,4.255a.034.034,0,0,1-.01-.049l-.021.03-.019.03Zm3.4-5.062.019-.03a.036.036,0,0,0-.038.06Zm-.346.594a1.9,1.9,0,0,1,.251.078.35.35,0,0,0,.328-.3l.04-.061c-.06.091-.15.162-.189.223-.049.01-.079-.01-.129,0l.079-.121c.129,0,.078-.12.078-.12-.09-.06-.15-.1-.33.043-.019.03-.059.09-.108.1C1157.221,484.913,1157.182,484.973,1157.261,484.983Zm-.424.583c.019-.03.01-.079.029-.11l-.019.031a.133.133,0,0,0-.03.11Zm-.206.513.059-.09-.12-.079A.484.484,0,0,1,1156.631,486.079Zm-1.789,2.537-.03-.02.011.049Zm-.365.623a1.856,1.856,0,0,1,.272.048.35.35,0,0,0,.327-.3l.019-.03c-.038.06-.128.131-.188.222l.021-.03c-.05.01-.08-.01-.131,0l.079-.121c.129,0,.059-.091.059-.091-.071-.089-.13-.128-.309.013a.326.326,0,0,1-.129.132C1154.437,489.169,1154.4,489.229,1154.476,489.238Zm-.4.555a.123.123,0,0,0,.01-.08h0a.138.138,0,0,0-.03.11Zm-.286.372a.531.531,0,0,1,.061.169l.079-.12-.121-.079Zm.019-.03-.019.03Zm3.932-5.877-.03-.02-.021.031A.036.036,0,0,0,1157.736,484.258Zm-2.786,4.256.02-.03c-.03-.02-.03-.02-.05.011Zm2.757-4.145-.041.061.06-.091c.011.049.02.1.031.15a.131.131,0,0,0,.041.069c.031.019.15-.032.139-.081a.707.707,0,0,0-.163-.278.219.219,0,0,1-.048.14Zm-.366.493c-.02.03-.01.08.011.05.029.019.029.019.079.008a.123.123,0,0,1,.01-.08C1157.391,484.852,1157.371,484.881,1157.341,484.862Zm-.305.662c-.01-.049.01-.08,0-.129l-.05.01a.193.193,0,0,1,0,.131A.035.035,0,0,0,1157.036,485.524Zm-2.114,3.1-.019.03.059-.091c.011.049.02.1.031.15a.077.077,0,0,0,.02.1c.031.02.17-.061.14-.081,0-.129-.092-.189-.163-.278a.129.129,0,0,1-.029.11Zm-.275.552c-.03-.019-.05.011-.08-.01l-.011-.05.1-.02C1154.637,489.127,1154.667,489.146,1154.646,489.177Zm-.375.573c-.011-.049.009-.079,0-.129l-.05.011a.186.186,0,0,1-.018.16C1154.251,489.781,1154.251,489.781,1154.271,489.75Zm3.052-4.468-.029-.019c.01.049.01.049-.01.079Zm-2.765,4.226c-.019.03-.019.03-.049.011a.034.034,0,0,1,.01.049l-.02.031.02-.031Zm3.5-5.082c.02-.03.01-.081.029-.111a.035.035,0,0,0-.049.011c.009.05-.01.08.02.1-.019.03.011.049-.01.08C1158.068,484.475,1158.038,484.456,1158.057,484.426Zm-2.785,4.255c.02-.03.008-.08.029-.111l-.03-.019c.01.05-.01.08,0,.13l.01.05Zm-.346.464-.021.03Zm3.151-4.62-.019.03h0Zm-.224.543-.012-.05c-.03-.019-.049.011-.08-.01.031.02.012.05.042.069A.035.035,0,0,0,1157.854,485.068Zm-2.561,3.713-.019.03S1155.324,488.8,1155.293,488.781Zm-.225.544c.02-.031.01-.081-.011-.051l-.06-.04c.011.051.011.051.04.071Zm2.894-4.357c.16-.111-.07-.09.038-.192l-.03-.019c-.04.061-.048.14-.089.2C1157.912,484.977,1157.942,485,1157.962,484.967Zm-2.785,4.256c.159-.11-.071-.09.038-.19l-.01-.05c-.04.061-.049.141-.089.2Zm3.193-4.55s.009-.08-.011-.05l-.15.032c.031.019.011.049.02.1C1158.28,484.743,1158.32,484.683,1158.37,484.672Zm-2.764,4.227-.012-.05-.15.031c.012.05-.008.08,0,.129C1155.515,488.969,1155.535,488.939,1155.605,488.9Zm2.5-4.014c.03.019-.01.079-.01.079.049-.01.08.011.131,0l.04-.06c-.05.011-.07.041-.121.052C1158.162,484.924,1158.132,484.9,1158.1,484.886Zm-.454.693-.02.031Zm-2.312,3.533a.111.111,0,0,1-.008.079.19.19,0,0,0,.129,0l.04-.06c-.049.01-.069.041-.12.05A.125.125,0,0,0,1155.336,489.112Zm2.472-3.384c.021-.031-.01-.052.01-.081a.035.035,0,0,0-.049.011c-.021.031.01.05-.011.08Zm-2.588,3.824-.019.03Zm-.2.431c.021-.03.01-.08.029-.11l-.049.01c-.021.031-.01.08-.03.11A.035.035,0,0,1,1155.023,489.984Zm3.4-5.192.039-.06a.036.036,0,0,0-.052.011c-.019.029.012.049-.008.079Zm-2.766,4.226.04-.06-.05.011c-.021.03.01.049-.009.08Zm2.836-4.006.02-.03c-.16-.018-.187.352-.358.283.011.05.042.071.052.121C1158.376,485.323,1158.353,485.094,1158.492,485.011Zm-2.764,4.226.019-.03c-.16-.018-.187.352-.377.314.03.02.041.071.071.09C1155.59,489.58,1155.589,489.32,1155.728,489.237Zm1.836-2.936.019-.031-.03-.02C1157.533,486.281,1157.533,486.281,1157.564,486.3Zm-2.766,4.226.02-.031a.038.038,0,0,0-.052.011Zm3.309-4.86a.131.131,0,0,1-.07-.091l-.02.031a.135.135,0,0,0,.071.09Zm-2.855,4.166-.02.03.09.06A.136.136,0,0,0,1155.252,489.832Zm2.37-3.491-.03-.02c-.019.03-.019.03-.009.079Zm-2.785,4.255.02-.03-.05.01.011.05Zm3.706-5.465a.035.035,0,0,0-.011-.049.119.119,0,0,0-.068.04l-.041.061A.2.2,0,0,0,1158.544,485.131Zm-.455.565.019-.03Zm-.316.482.02-.03-.02.03-.019.031Zm-2.015,3.21c.02-.031.041-.061.011-.08a.132.132,0,0,1-.071.041l-.038.06C1155.709,489.4,1155.739,489.418,1155.758,489.388Zm-.435.534.02-.03Zm-.316.483-.019.03Zm2.677-4.024-.019.03Zm-2.765,4.226-.019.03Zm3.133-4.59.019-.031c-.01-.049-.03-.019-.06-.04.03.02.03.02.01.051Zm-.14.081-.019.029-.021.031.052-.011A.034.034,0,0,0,1157.911,486.1Zm-2.645,4.174.04-.06-.061-.041.011.052A.035.035,0,0,1,1155.267,490.272Zm-.14.081-.02.03.031.02C1155.156,490.374,1155.156,490.374,1155.126,490.353Zm3.123-4.639-.05.011a.035.035,0,0,0,.011.049Zm-2.786,4.257.021-.031-.05.011c-.019.03-.019.03-.008.08Zm3.22-4.92.02-.031-.02.031-.038.06Zm-2.785,4.256.039-.061-.019.031-.06.09Zm2.776-4.177c-.02.031-.01.08-.029.11.049-.01.068-.04.1-.02-.01-.05.011-.08-.019-.1Zm-.691,1.056a.035.035,0,0,0,.01.05l.02-.03.019-.03A.034.034,0,0,0,1157.983,486.186Zm-2.095,3.2c-.019.03.011.049-.008.08.03.02.049-.011.1-.022-.01-.05-.01-.05-.02-.1C1155.94,489.376,1155.909,489.356,1155.888,489.387Zm-.691,1.056.031.02.04-.061C1155.216,490.413,1155.216,490.413,1155.2,490.443Zm3.29-4.832.031.02-.011-.05Zm-.277.423-.019.03a.036.036,0,0,0,.01.052C1158.223,486.085,1158.242,486.055,1158.211,486.034Zm-2.508,3.834a.036.036,0,0,1,.05-.011.035.035,0,0,1-.011-.049Zm-.266.473c.02-.031.02-.031.01-.081l-.021.03c-.02.031-.02.031-.008.081Zm3.417-5.222.03.019c.04-.06.06-.091.049-.14Zm-.3.452.019-.03Zm-2.468,3.774.03.019a.277.277,0,0,0,.048-.14Zm-.139.212.019-.03Zm2.382-3.442-.031-.02Zm-2.785,4.256a.036.036,0,0,0-.012-.05Zm3.485-5.263-.03-.02-.021.031A.036.036,0,0,0,1159.033,485.107Zm-.435.665.04-.061c-.019.031-.049.011-.069.041Zm-2.35,3.592a.035.035,0,0,0-.01-.05l-.021.03Zm-.435.664.04-.06-.049.01A.035.035,0,0,1,1155.814,490.028Zm3-4.589c-.019.03.01.049-.01.08l.04-.061Zm-.532.945c-.012-.05-.012-.05.008-.08a.037.037,0,0,0-.05.011.122.122,0,0,1-.01.08C1158.254,486.364,1158.254,486.364,1158.285,486.384Zm-2.254,3.312.011.049.04-.06Zm-.511.915a.036.036,0,0,1-.011-.051c-.011-.049-.03-.019-.03-.019-.021.031.009.05-.01.08A.035.035,0,0,1,1155.519,490.611Zm3.5-5.343-.011-.05-.02.03-.019.03A.035.035,0,0,0,1159.016,485.268Zm-.506.7.05-.01a.038.038,0,0,1-.011-.052l-.019.031Zm-.462.775a.037.037,0,0,1-.052.01l.031.02Zm-1.817,2.776a.035.035,0,0,0-.012-.049h0l-.038.059Zm-.485.674.03.02a.035.035,0,0,0-.011-.05Zm-.514.786.011.049.02-.03Zm3.211-4.711c-.049.011-.049.011-.07.041l-.04.061c.049-.011.049-.011.07-.042Zm-.356.544-.03-.02c-.019.03-.019.03.011.05Zm-.1.151.019-.031a.035.035,0,0,0-.049.012Zm-2.331,3.561a.036.036,0,0,0-.05.012l-.059.09a.131.131,0,0,0,.089-.071Zm-.356.544.019-.03c-.03-.019-.03-.019-.049.011l.01.05Zm-.079.121-.03-.019Zm3.576-5.333c.021-.03.03-.11.049-.14l-.05.01a.219.219,0,0,1-.048.141Zm-2.765,4.227c.02-.031.01-.08.049-.141a.035.035,0,0,1-.05.011.323.323,0,0,1-.067.17A.107.107,0,0,0,1156.034,490.086Zm2.894-4.488-.019.03c-.021.03,0,0,.029.02Zm-2.785,4.256-.02.031.03.019A.036.036,0,0,0,1156.143,489.854Zm3.15-4.749a.493.493,0,0,1-.058.22l.049-.01c.06-.091.1-.151.04-.19Zm-.138.211.019-.03Zm-.917,1.47-.031-.02-.019.03Zm-1.729,2.575a.5.5,0,0,1-.058.222c.019-.03.049-.011.07-.041.059-.09.079-.121.038-.19A.035.035,0,0,1,1156.509,489.36Zm-.1.151-.02.03Zm-.957,1.529a.034.034,0,0,1-.012-.049l-.019.029-.02.031C1155.422,491.02,1155.422,491.02,1155.454,491.041Zm3.565-5.383.029.019Zm-2.786,4.256.03.019Zm-.73,1.117-.019.03Zm3.31-4.862a.035.035,0,0,0-.049.011c-.121.05-.08.121-.109.231l-.02.03.139-.211Zm-2.765,4.226a.035.035,0,0,0-.049.011c-.12.05-.1.151-.109.231l-.019.03.138-.211Zm2.875-4.326c.03.02.05-.011.07-.041l.02-.03c-.05.01-.09.071-.11.1Zm-.02.03.02-.03Zm-.522.866-.031-.02-.019.03Zm-2.006,3,.021-.03Zm-.146.291.019-.03c-.05.011-.09.071-.11.1A.132.132,0,0,0,1156.227,490.254Zm-.683.976a.036.036,0,1,0,.04-.06l-.02.03Zm3.566-5.383a.035.035,0,0,1,.05-.011c-.03-.02-.03-.02-.011-.05Zm-2.764,4.226.03.02-.011-.05.02-.031-.02.031Zm2.5-3.754c.069-.041.139-.08.208-.122.02-.029.011-.079.03-.109-.071.04-.11.1-.18.141Zm-.275.553a.133.133,0,0,0,.029-.111c-.019.03-.04.06-.07.041.01.05.01.05-.01.08Zm-2.49,3.673c.07-.042.14-.081.21-.122a.379.379,0,0,1,.029-.11c-.071.041-.129.131-.178.141Zm-.275.552a.109.109,0,0,0,.01-.08.115.115,0,0,1-.069.041.034.034,0,0,1,.01.049C1155.784,491.128,1155.784,491.128,1155.8,491.1Zm3.773-5.766.02-.03c-.05.01-.05.01-.071.041A.035.035,0,0,0,1159.576,485.332Zm-.277.423-.019.03-.031-.02-.019.031a.035.035,0,0,1,.05-.011Zm-.117.181c.019-.03.019-.03-.012-.049l-.019.03Zm-2.391,3.653.04-.06a.128.128,0,0,0-.09.069A.036.036,0,0,1,1156.791,489.589Zm-.229.281-.019.031Zm-.079.121-.019.03.05-.01Zm-.067.171a.036.036,0,0,0-.012-.05l-.019.03Zm-.146.42-.02.031Zm2.252-3.311.019-.03-.019.03-.021.03Zm-2.766,4.226-.02.031Zm3.932-5.876.059-.091-.03-.019c-.039.06-.029.11-.048.14Zm-.454.694.049-.01a.13.13,0,0,1,.01-.08.034.034,0,0,1-.049.01C1159.254,486.287,1159.254,486.287,1159.235,486.316Zm-2.312,3.532.06-.091-.05.011c-.019.031-.01.08-.049.14Zm-.454.695a.035.035,0,0,0,.049-.011l-.01-.05-.03-.019A.117.117,0,0,1,1156.469,490.543Zm2.629-3.885c-.02.031-.02.031-.052.011.011.05.021.1.052.12A.187.187,0,0,1,1159.1,486.657Zm-2.786,4.257-.05.01c.031.02.041.071.05.12A.2.2,0,0,1,1156.312,490.914Zm2.993-4.508.019-.03-.03-.02.03.02Zm-2.786,4.257.02-.031a.034.034,0,0,0-.01-.049l-.021.03.03.019Zm3.033-4.569.019-.03-.049.01a.118.118,0,0,0-.01.08Zm-.819,1.188-.021.03Zm-1.947,3.039a.034.034,0,0,0-.049.01l.01.05Zm.139-.212-.02.031Zm2.61-3.724c-.031-.02-.031-.02-.08-.01-.159.111-.278.292-.258.393.031.15.14-.081.21-.122C1159.466,486.554,1159.5,486.445,1159.535,486.384Zm-2.766,4.226c-.03-.02-.05.01-.08-.01-.159.111-.278.292-.256.393.031.15.14-.081.208-.122C1156.7,490.781,1156.711,490.7,1156.77,490.61Zm3.089-4.919.021-.03Zm0,.131.02-.031a.035.035,0,0,0-.01-.049l-.049.01C1159.85,485.77,1159.83,485.8,1159.86,485.821Zm-2.785,4.256.019-.03c.02-.031.02-.031.01-.08a.035.035,0,0,1-.049.011C1157.064,490.028,1157.064,490.028,1157.075,490.077Zm2.945-4.238c.02-.03-.011-.05.01-.08l-.1.151c-.049.01-.079-.01-.13,0a.583.583,0,0,0,.043.2c-.019.03.08.01.1-.022.079-.12-.052.011-.061-.039a.215.215,0,0,0,.048-.14A.13.13,0,0,0,1160.021,485.839Zm-2.764,4.226-.012-.049-.1.15c-.03-.019-.08-.008-.11-.029a.37.37,0,0,0,.022.231l.1-.022c.1-.151-.03-.019-.041-.069a.129.129,0,0,0,.029-.111C1157.2,490.156,1157.236,490.095,1157.256,490.065Zm2.253-3.18a.22.22,0,0,0,.049-.14,1.224,1.224,0,0,1-.309.141C1159.29,486.956,1159.4,486.985,1159.509,486.885Zm-2.766,4.226a.345.345,0,0,0,.049-.14l-.019.03.019-.03a.769.769,0,0,1-.309.143C1156.524,491.182,1156.635,491.212,1156.743,491.11Zm2.793-4.466a.034.034,0,0,1-.01-.049l-.031-.02a.137.137,0,0,0-.029.11C1159.487,486.653,1159.507,486.625,1159.537,486.644Zm-2.764,4.226a.035.035,0,0,1-.011-.049l-.05.01a.113.113,0,0,0-.008.08C1156.723,490.88,1156.723,490.88,1156.772,490.87Zm2.38-3.7.019-.03-.019.03-.021.03Zm-2.766,4.226-.02.031Zm3.876-5.4c-.031-.019-.031-.019-.011-.049-.04-.071.008-.211-.091-.189-.12.05-.07.17-.059.22a.279.279,0,0,0,.083.268c.031.02.219-.071.23-.022.071.089.12-.05.15-.031a.381.381,0,0,0,.029-.11.272.272,0,0,0-.082-.14c-.02.031-.008.081-.029.11a.035.035,0,0,1-.05.011c-.2.042.128-.261,0-.259a.134.134,0,0,1,.01-.081l-.019.03.01.051C1160.432,485.936,1160.3,485.937,1160.262,486Zm-2.766,4.226-.03-.019c-.021-.1.027-.241-.091-.189-.1.02-.049.14-.039.19a.325.325,0,0,0,.062.3c.031.02.22-.072.25-.053.071.09.1-.02.15-.031a.349.349,0,0,0,.03-.11c-.012-.05-.072-.089-.082-.14-.02.031-.01.081-.029.111s-.021.03-.052.011c-.2.041.128-.261,0-.26l-.01-.05a.036.036,0,0,0,.01.05C1157.646,490.192,1157.536,490.163,1157.5,490.223Zm2.249-3.83-.02.03a.077.077,0,0,0,.1-.022C1159.8,486.432,1159.775,486.411,1159.746,486.392Zm-2.785,4.255a.128.128,0,0,0,.079.01A.107.107,0,0,0,1156.961,490.648Zm2.361-3.411a.036.036,0,0,0-.011-.052l-.019.031Zm-2.785,4.256.02-.03-.012-.05-.019.03A.036.036,0,0,0,1156.538,491.492Zm3.133-4.59c.089-.071.078-.12.037-.189-.059.09-.18.141-.128.26l-.039.061.019-.03.02-.031C1159.6,486.943,1159.65,486.934,1159.671,486.9Zm-2.765,4.226c.089-.071.079-.12.037-.189-.059.09-.2.171-.147.291l-.019.03.019-.03C1156.815,491.2,1156.865,491.189,1156.905,491.128Zm3.179-4.99.019-.03Zm-.207.382-.02.031-.049.01a.349.349,0,0,0-.03.11c.061.039.091.06.15-.031.019-.03-.04-.07-.071-.089Zm-2.539,3.815-.019.029Zm-.226.411-.021.031c-.019.03-.049.011-.068.04a.127.127,0,0,0-.011.08c.061.041.091.06.15-.031a.354.354,0,0,0-.071-.089Zm2.807-3.9-.03-.02-.09-.059c.022.1.031.15.041.2s.061.039.11.03c-.01-.05.009-.08-.02-.1C1159.95,486.871,1159.95,486.871,1159.919,486.851Zm-2.785,4.256-.03-.019-.09-.06a.522.522,0,0,1,.041.2c.031.02.08.011.11.03-.01-.049.01-.08,0-.129Zm3.052-4.729a.035.035,0,0,0,.049-.011.035.035,0,0,0-.01-.049.036.036,0,0,0-.05.011A.035.035,0,0,0,1160.186,486.378Zm-2.786,4.257.05-.011c.02-.031.039-.061.01-.08a.13.13,0,0,0-.07.041Zm2.351-3.593.03.02Zm-2.736,4.246-.03-.019c-.019.03-.019.03.011.049Zm2.935-4.416-.031-.02Zm-2.785,4.256-.031-.02Zm2.993-4.509.019-.03.04-.06a.036.036,0,0,1-.05.011A.111.111,0,0,1,1160.158,486.618Zm-.139.212-.03-.019Zm-2.647,4.045.019-.03.041-.06-.03-.02A.136.136,0,0,1,1157.372,490.874Zm-.167.192.049-.011-.03-.019Zm2.638-3.834c-.012-.05-.012-.05-.021-.1-.01.08-.029.11-.018.16A.05.05,0,0,0,1159.843,487.232Zm-2.786,4.257c-.011-.052.009-.081-.021-.1a.639.639,0,0,1-.018.159A.048.048,0,0,0,1157.057,491.489Zm.286-.5.019-.03Zm2.815-4.235a.707.707,0,0,1,.091.189l-.019.029.019-.029C1160.3,486.8,1160.328,486.687,1160.158,486.749Zm-2.764,4.226a.361.361,0,0,1,.071.219C1157.514,491.054,1157.563,490.913,1157.394,490.975Zm3.278-4.881a.035.035,0,0,0-.01-.05c-.019.031-.019.031-.01.08Zm-.641.915.03.019a.123.123,0,0,0,.009-.079l.02-.03Zm-2.124,3.311-.01-.05-.021.031a.035.035,0,0,0,.011.049Zm-.642.915.03.02c.019-.03-.011-.049.01-.079Zm3.359-5c-.078.121.06.04.051.12a.035.035,0,0,0,.05-.011.482.482,0,0,1-.012-.18C1160.675,486.225,1160.594,486.214,1160.624,486.234Zm-2.764,4.226c-.1.151.06.039.031.15a.034.034,0,0,1,.049-.01.523.523,0,0,0-.011-.181C1157.909,490.45,1157.829,490.44,1157.86,490.46Zm3.073-4.369-.011-.049-.019.03a.111.111,0,0,0-.01.08Zm-.284.764.06-.091a.136.136,0,0,0,.071.09c.19.037.054.38.194.429.029.019.029.019.08.008.039-.06.048-.14.087-.2l-.03-.019-.078.121-.02.03-.03-.019c.157-.372-.174-.329-.2-.559l-.061-.04c-.03-.02-.08-.008-.159-.018.01.049.041.069.05.12S1160.64,486.8,1160.649,486.855Zm-.418.243-.019.03Zm-.286.5-.029-.019Zm-1.8,2.748c.02-.03.02-.03-.01-.05-.019.031-.019.031-.01.08Zm-.262.733.039-.061c.03.02.04.071.09.06.171.068.035.41.175.459.049-.01.049-.01.08.01.059-.09.067-.171.108-.231l-.03-.02-.08.122-.038.059a.035.035,0,0,1-.011-.049c.157-.371-.194-.3-.216-.528-.01-.05-.01-.05-.041-.07a.55.55,0,0,1-.159-.019c.01.05.021.1.05.12Zm-.418.243-.021.03Zm-.337.514.049-.011-.03-.019Zm3.783-5.585a.125.125,0,0,0-.008.079l.03.02.079-.121C1160.934,486.221,1160.914,486.252,1160.914,486.252Zm-.068.17a.035.035,0,0,1-.01-.05l-.021.03.03.02c-.02.03.011.05-.008.08C1160.856,486.473,1160.825,486.452,1160.846,486.422Zm-.2.3-.03-.019Zm-2.5,3.754c-.021.03-.01.079-.03.11a.036.036,0,0,0,.052-.011l.078-.12Zm-.089.2c-.011-.05-.011-.05.01-.079l-.021.029.011.05.011.05Zm-.178.272-.03-.019Zm2.647-4.045-.019.03Zm.219-.2-.049.01a.037.037,0,0,1,.009.05Zm-2.816,4.236.03.019-.038.06C1157.944,490.989,1157.944,490.989,1157.933,490.94Zm3.082-4.579.021-.03.021-.031Zm-.076.25c.019-.03-.011-.05.01-.079l-.05.01c-.021.03-.01.08-.029.11C1160.917,486.643,1160.917,486.643,1160.938,486.612Zm-.465.644-.031-.02Zm-2.223,3.331.019-.03Zm-.1.281c.019-.031.01-.08.029-.11l-.05.01c-.019.03-.008.08-.049.141A.117.117,0,0,0,1158.153,490.868Zm-.446.613-.03-.019Zm2.786-4.125c.059-.091.159-.113.169-.193-.05.011-.09.071-.159.113l.011.049Zm-2.6,4.034c-.071.041-.091.069-.161.111a.123.123,0,0,1-.01.08C1157.768,491.521,1157.868,491.5,1157.9,491.391Zm3.208-4.971-.059.091Zm-.612.937.02-.031Zm-2.154,3.289-.059.091Zm-1.006,1.671.02-.031Zm3.776-5.506-.02.03c-.019.031.03.019.03.019C1161.14,486.83,1161.14,486.83,1161.11,486.81Zm-2.766,4.226-.02.031-.019.03a.035.035,0,0,0,.049-.011A.035.035,0,0,0,1158.345,491.036Zm2.846-4.085c.061.04.13,0,.18-.012.01-.08.03-.11.019-.161-.059.09-.159.111-.209-.008A.635.635,0,0,1,1161.191,486.951Zm-2.785,4.256a.522.522,0,0,0,.2-.042c-.01-.05.03-.11.02-.161-.08.121-.159.111-.231.023A.6.6,0,0,1,1158.406,491.206Zm3.033-4.569c.03.02.03.02.041.071l-.03-.02C1161.469,486.657,1161.508,486.6,1161.438,486.637Zm-.5.836a.037.037,0,0,1-.052.01l.031.02Zm-.079.25.04-.061c-.049.011-.049.011-.07.042l-.06-.04-.04.059c.05-.01.07-.039.1-.019Zm-2.2,3.17.06.04-.03-.02C1158.7,490.884,1158.744,490.823,1158.654,490.893Zm-.534.816.031.02Zm-.028.24.019-.031a.035.035,0,0,0-.049.012.109.109,0,0,1-.08-.01l-.02.03c.031.019.05-.01.1-.02Zm3.15-4.88-.021.031Zm-.089.2.019-.03a.035.035,0,0,0-.049.011.035.035,0,0,0,.01.05Zm-2.717,4.087.019-.03Zm-.049.14-.03-.019c-.019.03-.019.03.011.049Zm3.163-4.569.03.02.019-.031-.029-.019Zm-2.785,4.257.03.019.019-.03-.03-.019Zm2.925-4.209a.034.034,0,0,0,.049-.01l-.03-.019-.029-.02Zm-2.785,4.257.049-.011a.035.035,0,0,1-.01-.049l-.05.01C1158.927,491.2,1158.927,491.2,1158.906,491.231Zm3.031-4.568.031.02Zm-2.766,4.226.031.02Zm2.709-3.875c.021-.03.021-.03-.01-.05.019-.03,0,0-.03-.02.01.05.01.05-.01.08A.035.035,0,0,0,1161.882,487.014Zm-2.765,4.227a.036.036,0,0,0-.011-.051l-.049.011c.03.02.01.05-.01.08C1159.1,491.27,1159.1,491.27,1159.116,491.241Zm2.035-3.111-.031-.02.021-.03-.021.03Zm-2.766,4.227-.031-.02.02-.03-.02.03Zm3.768-5.165-.03-.02Zm-.327.432-.019.03Zm-2.438,3.793-.049.01Zm2.933-4.418-.019.031Zm-.709,1.218c.019-.031-.011-.05.01-.08l-.05.01c.03.02.011.05.02.1Zm-2.055,3.008-.02.031Zm-.71,1.218-.01-.05c.019-.03,0,0-.031-.02a.273.273,0,0,1,0,.131Zm3.526-5.324a.035.035,0,0,0-.011-.049l-.019.03-.019.03Zm-.484.676a.034.034,0,0,0,.01.049l.02-.03Zm-2.282,3.55-.03-.019-.019.03C1159.588,491.375,1159.588,491.375,1159.607,491.345Zm-.5.706.029.019.02-.03Zm2.865-4.247-.031-.02a.037.037,0,0,0,.011.052Zm-.257.393-.011-.05-.019.03-.02.03C1161.692,488.226,1161.692,488.226,1161.712,488.2Zm-2.508,3.834a.035.035,0,0,1-.05.01l.03.02Zm-.277.422c.02-.03.02-.03-.011-.05l-.04.061Zm2.677-4.024-.03-.02.03.02.019-.031Zm-2.766,4.226-.03-.019-.019.03a.035.035,0,0,1,.049-.011l.021-.03Zm2.9-4.1.019-.031-.09-.059a.037.037,0,0,1-.052.01c.061.041.091.06.142.049-.019.031-.019.031-.07.041C1161.715,488.587,1161.715,488.587,1161.736,488.557Zm-2.058,2.878-.019.031Zm-.728,1.377.021-.03c-.031-.02-.042-.07-.071-.089a.113.113,0,0,1-.071.039.277.277,0,0,1,.142.049.036.036,0,0,1-.051.01Zm3.733-5.7c.02-.03.02-.03.008-.08l-.019.03c-.019.03-.019.03-.008.08Zm-2.764,4.226a.036.036,0,0,0-.012-.05l-.019.03.011.052Zm2.637-3.835.04-.06-.05.011-.059.09A.11.11,0,0,0,1162.556,487.5Zm-2.764,4.227.04-.061-.052.011-.059.091C1159.771,491.755,1159.771,491.755,1159.792,491.725Zm2.687-3.977.019-.03-.03-.019-.019.03Zm-.119.181a.035.035,0,0,0-.011-.049C1162.33,487.91,1162.33,487.91,1162.36,487.929Zm-2.647,4.046.02-.03c-.03-.02-.03-.02-.05.011Zm-.138.211.019-.03-.03-.019Zm-.6.987-.02.03Zm3.686-5.435a.035.035,0,0,0,.049-.011c-.011-.049.01-.08,0-.129l-.049.01A.2.2,0,0,1,1162.659,487.737Zm-2.766,4.226c-.021.031.03.019.03.019-.011-.049.01-.079,0-.129.019-.03,0,0-.03-.02A.439.439,0,0,0,1159.894,491.963Zm2.668-3.815-.02.03-.03-.019.011.05.019-.031Zm-2.816,4.238c-.019.03.011.049-.008.079l.038-.06Zm3.221-4.791-.049.011c-.02.03-.041.06-.011.08a.038.038,0,0,0,.052-.011A.128.128,0,0,0,1162.967,487.595Zm-2.765,4.226a.124.124,0,0,0-.068.041.115.115,0,0,0-.011.08.123.123,0,0,0,.071-.041A.127.127,0,0,0,1160.2,491.82Zm1.75-2.606.03.02Zm-2.736,4.246-.03-.019-.019.03.03.019Zm3.182-4.6c-.031-.02-.011-.05-.041-.071l-.05.011a.129.129,0,0,1,.041.069Zm-2.766,4.226c-.03-.019-.011-.05-.04-.071a.036.036,0,0,1-.052.011c.012.05.041.069.022.1C1159.582,493.1,1159.613,493.116,1159.632,493.086Zm3.534-5.534.021-.03Zm-.226.412-.03-.019c.03.019.03.019.01.049Zm-.255.522c-.011-.049.008-.079-.021-.1a.125.125,0,0,0-.069.041l.01.05C1162.635,488.5,1162.656,488.468,1162.685,488.487Zm-.614.806-.03-.019a.035.035,0,0,0,.011.049Zm-1.668,2.485.019-.03Zm-.228.413-.03-.02.011.05Zm-.255.522c-.03-.02-.011-.05-.041-.071l-.049.011c-.02.031.01.05-.01.08Zm-.615.8-.029-.019-.02.03.03.019Zm3.567-5.383-.021.03Zm.109-.1-.019.03Zm-2.766,4.227-.019.03Zm3.023-4.488-.03-.02c-.02.03.011.05-.008.08l.06.038ZM1160.474,492l-.05.01.011.05.06.039Zm2.55-3.635a.034.034,0,0,0,.049-.01c.021-.03.021-.03.01-.08l-.08-.01Zm-2.766,4.227.03.02a.136.136,0,0,0,.029-.11s-.019.03-.08-.01C1160.249,492.54,1160.259,492.591,1160.259,492.591Zm2.509-3.7-.019.03ZM1160,493.113l-.04.061Zm3.045-4.258-.031-.02-.019.031c-.03-.02-.08-.01-.11-.03a.111.111,0,0,0-.01.081l.091.059c.021-.031.008-.08.029-.11A.035.035,0,0,1,1163.048,488.855Zm-2.764,4.226-.031-.02-.039.061-.091-.06c-.019.03-.04.061-.009.081a.133.133,0,0,1,.071.089c.019-.03.008-.08.029-.11S1160.232,493.091,1160.284,493.081Zm-.28.163-.019.029Zm3.4-4.932-.011-.049-.05.01a.036.036,0,0,1,.011.05C1163.385,488.341,1163.385,488.341,1163.4,488.311Zm-.278.293.03.019c.019-.031.019-.031-.01-.05Zm-2.508,3.963c.02-.03-.011-.05.01-.08a.035.035,0,0,1-.049.011c.01.049.01.049-.011.079Zm-.258.262-.019.03.049-.011-.011-.049Z" transform="translate(-1138.302 -471.032)"/><path class="g" d="M1170.034,483c.22.059.295.408.377.678.05.12-.018.29-.017.419a4.36,4.36,0,0,0,.093.58.036.036,0,0,0,.052-.011c-.066.562-.1,1.143-.146,1.672a3.841,3.841,0,0,0-.135.6c-.038.19-.047.4-.1.62-.01.08-.038.192-.048.272a5.584,5.584,0,0,1-.066.561c-.075.381-.1.751-.18,1.132-.067.3-.105.622-.172.922a.76.76,0,0,0,0,.26c-.095.541-.17,1.052-.3,1.7a23.58,23.58,0,0,1-.547,2.616.161.161,0,0,0,.071.09c.278-.293.586-.565.894-.838a5.608,5.608,0,0,1,.566-.535c.466-.383.9-.788,1.37-1.171a9.214,9.214,0,0,0,.755-.628c.287-.242.556-.455.794-.687.527-.474,1.063-.9,1.559-1.394a3.927,3.927,0,0,0,.615-.674,2.043,2.043,0,0,1,.734-.6,10.7,10.7,0,0,0,.856-.648,1.948,1.948,0,0,1,.7-.406,1.98,1.98,0,0,1,.153.229c.1-.02.169-.061.268-.083l.031.02c.141.18.234.369.344.528.052.119.122.208.173.328a1,1,0,0,1,.107.759c-.018.161.024.361.006.52a2.457,2.457,0,0,1-.423.975,2.153,2.153,0,0,0-.126.392q-.311.571-.62,1.145c-.08.121-.149.291-.228.412-.267.473-.543.9-.84,1.347-.225.413-.453.825-.7,1.267l-.612.935a2.551,2.551,0,0,0-.216.462l-.119.181a2.377,2.377,0,0,1-.383.783l-.376.575-.789,1.207a5.89,5.89,0,0,0-.4.684l-.337.513c-.039.061-.049.14-.089.2l-.138.212-.632.965.061.04-.258.392c-.117.182-.217.333-.335.514l-.2.3a2.719,2.719,0,0,1-.266.472c-.139.212-.247.442-.4.684s-.316.484-.495.755-.354.544-.533.816c-.158.241-.285.5-.423.714-.1.152-.149.291-.226.412-.267.472-.483.934-.729,1.377-.206.382-.413.763-.651,1.126l-.572.876a4.052,4.052,0,0,1-.417.5c-.149.161-.347.332-.545.5a.364.364,0,0,1-.422-.016c-.13-.131-.251-.208-.383-.338a.5.5,0,0,1-.144-.569c.028-.241.036-.45.043-.66a1.6,1.6,0,0,1,.162-.973c.3-.453.544-.895.791-1.338.187-.352.364-.753.55-1.1.179-.273.387-.525.585-.826.158-.241.274-.552.453-.824.236-.362.515-.655.751-1.017.178-.272.3-.582.493-.885a4.4,4.4,0,0,0,.375-.573l.731-1.117c.247-.442.573-.876.819-1.317a13.454,13.454,0,0,0,.839-1.478c.119-.181.2-.432.334-.644l.375-.573c.119-.181.228-.412.365-.623.119-.182.286-.374.4-.555.178-.272.326-.563.484-.8.139-.211.307-.4.444-.614.416-.634.811-1.237,1.2-1.841.277-.423.563-.8.852-1.168a.262.262,0,0,0,.058-.22c-.021.03-.05.011-.07.041-.27.212-.507.444-.8.688a5.229,5.229,0,0,1-.477.464l-.654.606c-.06.09-.149.162-.208.252-.219.2-.467.384-.635.576-.219.2-.407.424-.606.6l-.059.091c-.219.2-.407.424-.625.625a2.361,2.361,0,0,1-.377.314,11.375,11.375,0,0,1-.843.828l-.478.334a5.215,5.215,0,0,0-.516.525,6.321,6.321,0,0,1-.575.616l-.268.212-.537.425a6.016,6.016,0,0,1-.626.495,1.2,1.2,0,0,1-.547.246c-.249.053-.5.235-.72.047a.669.669,0,0,1-.263-.388,1.927,1.927,0,0,1-.086-.659c.036-.452.072-.9.089-1.322a6.413,6.413,0,0,0,.162-1.1,13.059,13.059,0,0,1,.255-1.774c.066-.43.1-.88.187-1.341.1-.412.213-.853.329-1.294.1-.411.144-.812.241-1.223.105-.492.261-.994.4-1.465.059-.22.105-.491.164-.71s.086-.462.145-.684l.079-.12c.028-.241.107-.491.134-.732l-.061-.039-.158.242c-.108.231-.166.451-.255.653-.285.5-.6.986-.886,1.488-.119.182-.228.413-.346.594a8.752,8.752,0,0,1-.453.824c-.119.181-.267.343-.365.493-.139.212-.228.412-.365.623a.114.114,0,0,1-.069.042l.03.019a1.858,1.858,0,0,0-.278.292,1.341,1.341,0,0,0-.117.311l-.049.011c-.139.341-.3.662-.423.974a.036.036,0,0,1-.05.011,5.423,5.423,0,0,1-.592.905c-.267.343-.5.7-.741,1.067l.06.038a.137.137,0,0,0-.089.071l.03.02c-.4.684-.778,1.387-1.183,2.072a2.1,2.1,0,0,1-.394.733,2.728,2.728,0,0,0-.326.434c-.207.381-.4.813-.611,1.2-.166.322-.4.6-.562.926-.158.241-.266.472-.424.714a5.228,5.228,0,0,1-.572.876c-.178.271-.337.513-.514.785-.1.151-.259.262-.327.434-.2.431-.533.815-.759,1.227-.069.171-.169.192-.329.172-.049.011-.079-.008-.131,0,.092.189.174.327-.025.5a5.2,5.2,0,0,0-.811-.014c-.09-.059-.23-.108-.321-.167-.11-.029-.251-.079-.362-.108-.01-.049.03-.11.019-.159.01-.081.008-.211-.052-.25a.593.593,0,0,1-.007-.65c.2-.3.366-.624.563-.925.01-.08.1-.152.158-.242l.277-.423q.252-.481.5-.964a16.464,16.464,0,0,0,1-1.589,11.937,11.937,0,0,1,.889-1.359,2.093,2.093,0,0,0,.314-.612,8.143,8.143,0,0,1,.8-1.418c.375-.574.751-1.147,1.115-1.77.277-.423.494-.885.77-1.308.285-.5.6-.986.917-1.467.287-.374.553-.716.811-1.108.217-.333.394-.734.611-1.066.325-.563.682-1.108,1.006-1.67.1-.151.188-.352.307-.533.158-.241.346-.464.484-.674.217-.332.4-.684.592-1.036a5.987,5.987,0,0,0,.495-.624c.207-.383.484-.676.721-1.037a6.159,6.159,0,0,0,.424-.714c.169-.322.365-.623.533-.946a3.694,3.694,0,0,1,.4-.473C1169.328,482.367,1169.641,482.615,1170.034,483ZM1169,485.9c.01-.08.048-.14.058-.222l-.03-.019-.237.362.03.02.079-.121-.01-.05C1168.919,485.893,1168.969,485.882,1169,485.9Z" transform="translate(-1137.383 -471.129)"/><path class="g" d="M1175.458,514.714c-.139.212-.237.232-.6.125a.381.381,0,0,0-.468.255c-.12.05-.219.072-.389.133-.271-.048-.58.1-.981-.083-.281-.1-.642-.2-1.034-.331a1.2,1.2,0,0,1-.3-.2,20.143,20.143,0,0,1-1.563-1.5,5.744,5.744,0,0,1-.58-1.025,4.718,4.718,0,0,1-.3-.8,9.605,9.605,0,0,1-.37-1.146,18.661,18.661,0,0,1-.31-2.358,6.027,6.027,0,0,1,.242-2.213c.253-.783.507-1.565.82-2.309a19.773,19.773,0,0,1,.914-1.858,8.494,8.494,0,0,1,.781-1.127,11.41,11.41,0,0,1,1.527-1.674c.347-.333.663-.686,1.042-1,.6-.516,1.192-1.032,1.8-1.5.568-.4,1.2-.77,1.771-1.126a12.814,12.814,0,0,1,1.155-.71c.069-.041.17-.062.189-.092.279-.163.508-.314.716-.436.529-.214,1.028-.449,1.556-.664a6.72,6.72,0,0,1,2.549-.4,7.281,7.281,0,0,1,1.774.384,7.263,7.263,0,0,1,.753.364,2.14,2.14,0,0,1,.769,1.062,1.6,1.6,0,0,1,.216.659c.021.1-.108.232-.167.322-.019.03-.141-.049-.22-.059a.763.763,0,0,0-.26,0,1.4,1.4,0,0,1-.622-.105,1.93,1.93,0,0,0-.7-.244,9.669,9.669,0,0,0-1.5-.207,5.649,5.649,0,0,0-1.139.161,6.369,6.369,0,0,1-.638.186,4.647,4.647,0,0,0-1.346.541c-.039.06-.12.05-.19.091-.368.234-.716.436-1.084.671-.35.2-.637.446-.986.648a7.824,7.824,0,0,0-1.49,1.224l-1.52,1.334c-.218.2-.417.374-.635.575-.169.192-.367.363-.535.556,0,0-.05.01-.02.029-.137.341-.466.515-.673.768-.189.22-.387.393-.516.523-.335.513-.662.946-.948,1.449a3.975,3.975,0,0,0-.343.854c-.029.11-.067.17-.1.28-.157.371-.295.713-.431,1.054-.089.2-.176.4-.274.683a1.485,1.485,0,0,1-.125.782,4.449,4.449,0,0,0-.122.911,1.041,1.041,0,0,1-.036.32c.053.38.086.789.14,1.17.03.019.03.019.049-.011-.04.06-.029.11-.068.17.019-.03.019-.03.07-.04.084.4.2.818.261,1.248a2.4,2.4,0,0,0,.662,1.425,2.056,2.056,0,0,0,.9.543,12.618,12.618,0,0,0,1.343.188,5.884,5.884,0,0,1,.74.054,1.941,1.941,0,0,1,.542.356c.1.109.223.188.322.3.061.04.072.09.143.178C1175.314,514.275,1175.386,514.495,1175.458,514.714Z" transform="translate(-1134.75 -469.031)"/><text class="h" transform="translate(59.015 34.298) rotate(33.198)"><tspan x="-9.164" y="0">2</tspan></text></g><g transform="translate(0 0)"><rect class="e" width="117.39" height="86.611" rx="16.209" transform="matrix(0.837, 0.548, -0.548, 0.837, 47.423, 0)"/><line class="e" x2="98.229" y2="64.275" transform="translate(10.722 56.089)"/><path class="g" d="M1146.129,523.3a3.058,3.058,0,1,1-.885-4.234A3.058,3.058,0,0,1,1146.129,523.3Z" transform="translate(-1088.812 -425.642)"/><rect class="e" width="26.317" height="11.868" transform="translate(38.104 97.407) rotate(33.198)"/><line class="e" x2="38.014" y2="24.874" transform="translate(23.26 102.639)"/></g></g><g transform="translate(1613.05 3877.07)"><g transform="translate(135.457 0)"><rect class="f" width="31.741" height="130.858" transform="translate(15.923 0) rotate(6.989)"/><line class="f" x1="15.753" y1="1.931" transform="translate(29.766 17.509)"/><line class="f" x1="15.753" y1="1.931" transform="translate(26.076 47.604)"/><line class="f" x1="15.753" y1="1.931" transform="translate(22.387 77.698)"/><line class="f" x1="15.753" y1="1.931" transform="translate(18.698 107.794)"/><line class="f" x1="7.876" y1="0.965" transform="translate(36.421 28.437)"/><line class="f" x1="7.876" y1="0.965" transform="translate(35.187 38.503)"/><line class="f" x1="7.876" y1="0.965" transform="translate(32.725 58.584)"/><line class="f" x1="7.876" y1="0.965" transform="translate(31.491 68.65)"/><line class="f" x1="7.876" y1="0.965" transform="translate(29.029 88.73)"/><line class="f" x1="7.876" y1="0.966" transform="translate(27.795 98.796)"/></g><g transform="translate(-122.493 348.825)"><g transform="translate(64.574 20.897)"><line class="f" x1="8.517" y1="4.251" transform="translate(27.575 16.022)"/><line class="f" x1="8.517" y1="4.251" transform="translate(14.033 43.151)"/><line class="f" x1="8.517" y1="4.251" transform="translate(0.492 70.279)"/><line class="f" x1="4.259" y1="2.126" transform="translate(40.892)"/><line class="f" x1="4.259" y1="2.126" transform="translate(36.362 9.074)"/><line class="f" x1="4.259" y1="2.126" transform="translate(27.327 27.175)"/><line class="f" x1="4.259" y1="2.126" transform="translate(22.798 36.249)"/><line class="f" x1="4.259" y1="2.126" transform="translate(13.763 54.35)"/><line class="f" x1="4.259" y1="2.126" transform="translate(0 81.922)"/><line class="f" x1="4.259" y1="2.126" transform="translate(9.233 63.424)"/></g><path class="f" d="M913.379,455.134,1034.6,369.385,976.153,486.468Z" transform="translate(-913.379 -369.385)"/><path class="f" d="M944.314,442.483l33.156-23.455-15.986,32.025Z" transform="translate(-907.262 -359.569)"/></g></g></g></g></svg>