<svg xmlns="http://www.w3.org/2000/svg" xmlns:xlink="http://www.w3.org/1999/xlink" width="230.709" height="210.894" viewBox="0 0 230.709 210.894"><defs><style>.a,.c{mix-blend-mode:lighten;isolation:isolate;}.b{fill:url(#a);}.c{opacity:0.3;}.d{fill:#54e6e1;}</style><linearGradient id="a" x1="0.5" x2="0.5" y2="1" gradientUnits="objectBoundingBox"><stop offset="0" stop-color="#4d40ff"/><stop offset="1" stop-color="#82a8ff"/></linearGradient></defs><g transform="translate(-1107.619 -205.911)"><g class="a" transform="translate(2186.588 99.125)"><g transform="translate(-1078.969 106.786)"><rect class="b" width="11.062" height="3.344" transform="translate(33.639 62.92) rotate(66.026)"/><g transform="translate(63.877 118.409)"><path class="b" d="M169.365,303.46,222.4,292.777l58.718,8.758-46.246,11.521Z" transform="translate(-169.365 -292.777)"/><path class="b" d="M252.665,292.777l1.5,68.644,51.071,8.72,6.144-68.606Z" transform="translate(-199.633 -292.777)"/><path class="b" d="M234.869,391.359l-57.824-13.435-7.68-68.366,65.5,9.6Z" transform="translate(-169.365 -298.874)"/><path class="b" d="M272.256,318.054,318.5,306.534l-6.144,68.606-40.1,15.121Z" transform="translate(-206.752 -297.776)"/><path class="b" d="M297.542,385.929l9.851-3.714,7.815-70.9-10.156,2.593Z" transform="translate(-215.94 -299.514)"/><path class="b" d="M205.674,383.668l-7.439-69.9,12.568,1.853,5.174,70.441Z" transform="translate(-179.855 -300.404)"/></g><g transform="translate(57.165)"><path class="b" d="M300.507,176.3" transform="translate(-210.305 -132.045)"/><path class="b" d="M319.3,174.953l-43.282,16.536.847,15.579,41.75-17.492Z" transform="translate(-201.405 -131.555)"/><path class="b" d="M276.713,172.661l-45.358-3.009-15.176-1.007-57.357,18.031,74.609,2.52Z" transform="translate(-158.822 -129.264)"/><path class="b" d="M162.156,210.79l72.122,4.277-.847-15.579-74.609-2.52Z" transform="translate(-158.822 -139.555)"/><path class="b" d="M186.994,197.876l15.062.678,3.224,14.517-13.336-.791Z" transform="translate(-169.059 -139.885)"/><path class="b" d="M186.994,187.829l54.6-17.6,12.644.839-52.18,17.441Z" transform="translate(-169.059 -129.838)"/><path class="b" d="M308.928,186.279l-.874,15.332,9.34-3.913,1-15.218Z" transform="translate(-213.047 -134.291)"/><path class="b" d="M280.14,180.793l-66.6-2.957-10.764,3.384,67.9,3.372Z" transform="translate(-174.793 -132.603)"/><g transform="translate(16.569 2.342)"><path class="b" d="M184.848,138.052s16.909,19.61,37.338,20.307c4.742-.5,6.894-1.9,6.894-1.9L199.6,137.337h0a34.336,34.336,0,0,1,9.274-16.736h0a2.5,2.5,0,0,0-2.686-4.1l-8.446,3.345-8.665,8.446Z" transform="translate(-184.848 -112.589)"/><path class="b" d="M226.927,155.731l-16.6-29.829a2.253,2.253,0,0,0-1.647-1.134,25.113,25.113,0,0,0-12.689,1.683,22.9,22.9,0,0,0-11.147,9.477l4.233-9.76a22.378,22.378,0,0,1,5.149-7.349h0a28.67,28.67,0,0,1,14.711-7.409l4.97-.88a4.2,4.2,0,0,1,4.727,2.844l12.737,39.473Z" transform="translate(-184.848 -110.465)"/></g><g transform="translate(58.196)"><path class="b" d="M293.625,127.029s-12.412,22.725-32.238,27.7c-4.742.5-7.14-.409-7.14-.409l24.8-24.887h0a34.338,34.338,0,0,0-12.582-14.414h0a2.5,2.5,0,0,1,1.764-4.574l8.96,1.5,10.245,6.438Z" transform="translate(-251.691 -108.101)"/><path class="b" d="M255.187,153.916l9.96-32.65a2.254,2.254,0,0,1,1.372-1.455,25.117,25.117,0,0,1,12.76-1.02,22.9,22.9,0,0,1,12.889,6.923l-6.189-8.653a22.389,22.389,0,0,0-6.578-6.1h0a28.674,28.674,0,0,0-15.939-4.153l-5.043.184a4.2,4.2,0,0,0-4.024,3.774l-4.16,41.268Z" transform="translate(-250.233 -106.786)"/></g></g><g transform="translate(177.663 67.74)"><rect class="b" width="9.732" height="2.942" transform="matrix(-0.82, 0.573, -0.573, -0.82, 9.863, 24.187)"/><rect class="b" width="9.732" height="2.942" transform="translate(28.011 25.678) rotate(145.037)"/><rect class="b" width="9.732" height="2.942" transform="translate(24.292 1.156) rotate(113.14)"/><rect class="b" width="9.732" height="2.942" transform="translate(5.102 1.216) rotate(103.299)"/><rect class="b" width="9.732" height="2.942" transform="translate(12.593 45.6) rotate(172.654)"/></g><g transform="translate(81.656 71.428)"><rect class="b" width="9.732" height="2.942" transform="translate(149.053 20.309) rotate(155.742)"/><rect class="b" width="9.732" height="2.942" transform="matrix(-0.673, 0.74, -0.74, -0.673, 64.02, 55.548)"/><rect class="b" width="9.732" height="2.942" transform="matrix(-0.766, 0.643, -0.643, -0.766, 138.392, 2.253)"/><rect class="b" width="9.732" height="2.942" transform="translate(80.94 49.183) rotate(135)"/><rect class="b" width="9.732" height="2.942" transform="matrix(-0.996, 0.091, -0.091, -0.996, 137.155, 55.143)"/><rect class="b" width="9.732" height="2.942" transform="translate(136.534 38.003) rotate(170.439)"/><rect class="b" width="9.732" height="2.942" transform="matrix(-0.773, -0.634, 0.634, -0.773, 7.523, 57.395)"/><rect class="b" width="9.732" height="2.942" transform="matrix(-0.927, 0.374, -0.374, -0.927, 112.468, 55.261)"/><rect class="b" width="9.732" height="2.942" transform="matrix(0.205, -0.979, 0.979, 0.205, 43.137, 63.171)"/><rect class="b" width="9.732" height="2.942" transform="translate(28.81 60.823) rotate(-105.606)"/></g><g transform="translate(28.214 81.538)"><rect class="b" width="9.732" height="2.942" transform="matrix(0.82, 0.573, -0.573, 0.82, 17.06, 20.246)"/><rect class="b" width="9.732" height="2.942" transform="translate(0.889 25.848) rotate(17.584)"/><rect class="b" width="9.732" height="2.942" transform="matrix(0.665, 0.747, -0.747, 0.665, 10.827, 3.386)"/><rect class="b" width="9.732" height="2.942" transform="translate(27.736 0) rotate(60)"/><rect class="b" width="9.732" height="2.942" transform="matrix(0.975, -0.221, 0.221, 0.975, 23.32, 42.434)"/><rect class="b" width="9.732" height="2.942" transform="translate(7.861 56.086) rotate(-12.745)"/></g><g transform="translate(0 76.964)"><rect class="b" width="9.732" height="2.942" transform="matrix(0.973, 0.229, -0.229, 0.973, 0.674, 28.217)"/><rect class="b" width="9.732" height="2.942" transform="translate(19.413) rotate(45)"/><rect class="b" width="9.732" height="2.942" transform="translate(16.883 16.411) rotate(27.03)"/><rect class="b" width="9.732" height="2.942" transform="translate(21.502 44.504) rotate(13.941)"/></g></g></g><g class="c" transform="translate(2186.588 99.125)"><g transform="translate(-1078.969 106.786)"><rect class="d" width="11.062" height="3.344" transform="translate(33.639 62.92) rotate(66.026)"/><g transform="translate(63.877 118.409)"><path class="d" d="M169.365,303.46,222.4,292.777l58.718,8.758-46.246,11.521Z" transform="translate(-169.365 -292.777)"/><path class="d" d="M252.665,292.777l1.5,68.644,51.071,8.72,6.144-68.606Z" transform="translate(-199.633 -292.777)"/><path class="d" d="M234.869,391.359l-57.824-13.435-7.68-68.366,65.5,9.6Z" transform="translate(-169.365 -298.874)"/><path class="d" d="M272.256,318.054,318.5,306.534l-6.144,68.606-40.1,15.121Z" transform="translate(-206.752 -297.776)"/><path class="d" d="M297.542,385.929l9.851-3.714,7.815-70.9-10.156,2.593Z" transform="translate(-215.94 -299.514)"/><path class="d" d="M205.674,383.668l-7.439-69.9,12.568,1.853,5.174,70.441Z" transform="translate(-179.855 -300.404)"/></g><g transform="translate(57.165)"><path class="d" d="M300.507,176.3" transform="translate(-210.305 -132.045)"/><path class="d" d="M319.3,174.953l-43.282,16.536.847,15.579,41.75-17.492Z" transform="translate(-201.405 -131.555)"/><path class="d" d="M276.713,172.661l-45.358-3.009-15.176-1.007-57.357,18.031,74.609,2.52Z" transform="translate(-158.822 -129.264)"/><path class="d" d="M162.156,210.79l72.122,4.277-.847-15.579-74.609-2.52Z" transform="translate(-158.822 -139.555)"/><path class="d" d="M186.994,197.876l15.062.678,3.224,14.517-13.336-.791Z" transform="translate(-169.059 -139.885)"/><path class="d" d="M186.994,187.829l54.6-17.6,12.644.839-52.18,17.441Z" transform="translate(-169.059 -129.838)"/><path class="d" d="M308.928,186.279l-.874,15.332,9.34-3.913,1-15.218Z" transform="translate(-213.047 -134.291)"/><path class="d" d="M280.14,180.793l-66.6-2.957-10.764,3.384,67.9,3.372Z" transform="translate(-174.793 -132.603)"/><g transform="translate(16.569 2.342)"><path class="d" d="M184.848,138.052s16.909,19.61,37.338,20.307c4.742-.5,6.894-1.9,6.894-1.9L199.6,137.337h0a34.336,34.336,0,0,1,9.274-16.736h0a2.5,2.5,0,0,0-2.686-4.1l-8.446,3.345-8.665,8.446Z" transform="translate(-184.848 -112.589)"/><path class="d" d="M226.927,155.731l-16.6-29.829a2.253,2.253,0,0,0-1.647-1.134,25.113,25.113,0,0,0-12.689,1.683,22.9,22.9,0,0,0-11.147,9.477l4.233-9.76a22.378,22.378,0,0,1,5.149-7.349h0a28.67,28.67,0,0,1,14.711-7.409l4.97-.88a4.2,4.2,0,0,1,4.727,2.844l12.737,39.473Z" transform="translate(-184.848 -110.465)"/></g><g transform="translate(58.196)"><path class="d" d="M293.625,127.029s-12.412,22.725-32.238,27.7c-4.742.5-7.14-.409-7.14-.409l24.8-24.887h0a34.338,34.338,0,0,0-12.582-14.414h0a2.5,2.5,0,0,1,1.764-4.574l8.96,1.5,10.245,6.438Z" transform="translate(-251.691 -108.101)"/><path class="d" d="M255.187,153.916l9.96-32.65a2.254,2.254,0,0,1,1.372-1.455,25.117,25.117,0,0,1,12.76-1.02,22.9,22.9,0,0,1,12.889,6.923l-6.189-8.653a22.389,22.389,0,0,0-6.578-6.1h0a28.674,28.674,0,0,0-15.939-4.153l-5.043.184a4.2,4.2,0,0,0-4.024,3.774l-4.16,41.268Z" transform="translate(-250.233 -106.786)"/></g></g><g transform="translate(177.663 67.74)"><rect class="d" width="9.732" height="2.942" transform="matrix(-0.82, 0.573, -0.573, -0.82, 9.863, 24.187)"/><rect class="d" width="9.732" height="2.942" transform="translate(28.011 25.678) rotate(145.037)"/><rect class="d" width="9.732" height="2.942" transform="translate(24.292 1.156) rotate(113.14)"/><rect class="d" width="9.732" height="2.942" transform="translate(5.102 1.216) rotate(103.299)"/><rect class="d" width="9.732" height="2.942" transform="translate(12.593 45.6) rotate(172.654)"/></g><g transform="translate(81.656 71.428)"><rect class="d" width="9.732" height="2.942" transform="translate(149.053 20.309) rotate(155.742)"/><rect class="d" width="9.732" height="2.942" transform="matrix(-0.673, 0.74, -0.74, -0.673, 64.02, 55.548)"/><rect class="d" width="9.732" height="2.942" transform="matrix(-0.766, 0.643, -0.643, -0.766, 138.392, 2.253)"/><rect class="d" width="9.732" height="2.942" transform="translate(80.94 49.183) rotate(135)"/><rect class="d" width="9.732" height="2.942" transform="matrix(-0.996, 0.091, -0.091, -0.996, 137.155, 55.143)"/><rect class="d" width="9.732" height="2.942" transform="translate(136.534 38.003) rotate(170.439)"/><rect class="d" width="9.732" height="2.942" transform="matrix(-0.773, -0.634, 0.634, -0.773, 7.523, 57.395)"/><rect class="d" width="9.732" height="2.942" transform="matrix(-0.927, 0.374, -0.374, -0.927, 112.468, 55.261)"/><rect class="d" width="9.732" height="2.942" transform="matrix(0.205, -0.979, 0.979, 0.205, 43.137, 63.171)"/><rect class="d" width="9.732" height="2.942" transform="translate(28.81 60.823) rotate(-105.606)"/></g><g transform="translate(28.214 81.538)"><rect class="d" width="9.732" height="2.942" transform="matrix(0.82, 0.573, -0.573, 0.82, 17.06, 20.246)"/><rect class="d" width="9.732" height="2.942" transform="translate(0.889 25.848) rotate(17.584)"/><rect class="d" width="9.732" height="2.942" transform="matrix(0.665, 0.747, -0.747, 0.665, 10.827, 3.386)"/><rect class="d" width="9.732" height="2.942" transform="translate(27.736 0) rotate(60)"/><rect class="d" width="9.732" height="2.942" transform="matrix(0.975, -0.221, 0.221, 0.975, 23.32, 42.434)"/><rect class="d" width="9.732" height="2.942" transform="translate(7.861 56.086) rotate(-12.745)"/></g><g transform="translate(0 76.964)"><rect class="d" width="9.732" height="2.942" transform="matrix(0.973, 0.229, -0.229, 0.973, 0.674, 28.217)"/><rect class="d" width="9.732" height="2.942" transform="translate(19.413) rotate(45)"/><rect class="d" width="9.732" height="2.942" transform="translate(16.883 16.411) rotate(27.03)"/><rect class="d" width="9.732" height="2.942" transform="translate(21.502 44.504) rotate(13.941)"/></g></g></g></g></svg>