<svg xmlns="http://www.w3.org/2000/svg" width="413.937" height="413.937" viewBox="0 0 413.937 413.937"><defs><style>.a{opacity:0.86;}.b{fill:none;}.c,.d{stroke:none;}.d{fill:#ff449b;}</style></defs><g class="a" transform="translate(637.669 525.484) rotate(-180)"><g class="b" transform="translate(223.732 111.548)"><path class="c" d="M206.968,0C321.274,0,413.937,92.663,413.937,206.968S321.274,413.937,206.968,413.937,0,321.274,0,206.968,92.663,0,206.968,0Z"/><path class="d" d="M 206.9684295654297 99.99996948242188 C 147.9858093261719 99.99996948242188 99.99996948242188 147.9858093261719 99.99996948242188 206.9684295654297 C 99.99996948242188 265.9510498046875 147.9858093261719 313.9368896484375 206.9684295654297 313.9368896484375 C 265.9510498046875 313.9368896484375 313.9368896484375 265.9510498046875 313.9368896484375 206.9684295654297 C 313.9368896484375 147.9858093261719 265.9510498046875 99.99996948242188 206.9684295654297 99.99996948242188 M 206.9684295654297 -3.0517578125e-05 C 321.2739868164063 -3.0517578125e-05 413.9368896484375 92.66290283203125 413.9368896484375 206.9684295654297 C 413.9368896484375 321.2739868164063 321.2739868164063 413.9368896484375 206.9684295654297 413.9368896484375 C 92.66290283203125 413.9368896484375 -3.0517578125e-05 321.2739868164063 -3.0517578125e-05 206.9684295654297 C -3.0517578125e-05 92.66290283203125 92.66290283203125 -3.0517578125e-05 206.9684295654297 -3.0517578125e-05 Z"/></g></g></svg>