<svg xmlns="http://www.w3.org/2000/svg" xmlns:xlink="http://www.w3.org/1999/xlink" width="580" height="232" viewBox="0 0 580 232"><defs><style>.a{fill:#f9f9ff;}.b,.f{fill:url(#c);}.c{clip-path:url(#d);}.d{opacity:0.75;}.e{clip-path:url(#e);}.f{opacity:0.45;}.g{filter:url(#a);}</style><filter id="a" x="-75" y="-45" width="730" height="382" filterUnits="userSpaceOnUse"><feOffset dy="30" input="SourceAlpha"/><feGaussianBlur stdDeviation="25" result="b"/><feFlood flood-color="#4d40ff" flood-opacity="0.102"/><feComposite operator="in" in2="b"/><feComposite in="SourceGraphic"/></filter><linearGradient id="c" x1="0.5" x2="0.5" y2="1" gradientUnits="objectBoundingBox"><stop offset="0" stop-color="#fff"/><stop offset="1" stop-color="#648dff"/></linearGradient><clipPath id="d"><g class="g" transform="matrix(1, 0, 0, 1, 0, 0)"><path class="a" d="M31.183,0H548.817C566.039,0,580,13.431,580,30V202c0,16.569-13.961,30-31.183,30H31.183C13.961,232,0,218.569,0,202V30C0,13.431,13.961,0,31.183,0Z" transform="translate(4730 4363)"/></g></clipPath><clipPath id="e"><circle class="b" cx="122.15" cy="122.15" r="122.15"/></clipPath></defs><g class="c" transform="translate(-4730 -4363)"><g class="d" transform="translate(5159.104 4373.974)"><g class="e" transform="translate(0 140.41) rotate(-31)"><path class="f" d="M932.612,2901.414c228.055,372.566,739.194-22.962,612.257-451.422s532.406-106.052,780.34-287.469c323.978-237.045,405.832-1635.793,969.729-917.694,0,0-407.668-1140.594-419.744-1139.8S1818.124,0,1818.124,0L1071.711,293.837s-728.061,912.94-761.8,941.775S17.947,2118.976,1.279,2159.587,136.289,2970.8,136.289,2970.8s283.651,393.293,312.377,405.95" transform="translate(91.736 3618.693) rotate(-133)"/><path class="b" d="M122.15,0A122.15,122.15,0,1,1,0,122.15,122.15,122.15,0,0,1,122.15,0Z" transform="translate(-15.889 -81.433)"/></g><path class="b" d="M37.258,0A37.258,37.258,0,1,1,0,37.258,37.258,37.258,0,0,1,37.258,0Z" transform="translate(22.472)"/></g></g></svg>