<svg xmlns="http://www.w3.org/2000/svg" xmlns:xlink="http://www.w3.org/1999/xlink" width="311.28" height="381.622" viewBox="0 0 311.28 381.622"><defs><style>.a,.c{fill:none;}.a{stroke:#00ff9f;}.b{clip-path:url(#a);}.d,.e{stroke:none;}.e{fill:#ff449b;}</style><clipPath id="a"><path class="a" d="M2059.7,998.507,2370.95,999.7V618.077s-159.5,12.146-237.309,107.253S2059.7,998.507,2059.7,998.507Z" transform="translate(-1851.702 -515.448)"/></clipPath></defs><g class="b" transform="translate(-207.968 -102.629)"><g class="c" transform="translate(228.486 114.243)"><path class="d" d="M269.52,0c148.852,0,269.52,120.668,269.52,269.52s-120.668,269.52-269.52,269.52S0,418.371,0,269.52,120.668,0,269.52,0Z"/><path class="e" d="M 269.5197143554688 149.9999389648438 C 203.6162414550781 149.9999389648438 149.9999389648438 203.6162414550781 149.9999389648438 269.5197143554688 C 149.9999389648438 335.4231872558594 203.6162414550781 389.0394897460938 269.5197143554688 389.0394897460938 C 335.4231872558594 389.0394897460938 389.0394897460938 335.4231872558594 389.0394897460938 269.5197143554688 C 389.0394897460938 203.6162414550781 335.4231872558594 149.9999389648438 269.5197143554688 149.9999389648438 M 269.5197143554688 -6.103515625e-05 C 418.3714599609375 -6.103515625e-05 539.0394897460938 120.6681823730469 539.0394897460938 269.5197143554688 C 539.0394897460938 418.3714599609375 418.3714599609375 539.0394897460938 269.5197143554688 539.0394897460938 C 120.6681823730469 539.0394897460938 -6.103515625e-05 418.3714599609375 -6.103515625e-05 269.5197143554688 C -6.103515625e-05 120.6681823730469 120.6681823730469 -6.103515625e-05 269.5197143554688 -6.103515625e-05 Z"/></g></g></svg>