<svg xmlns="http://www.w3.org/2000/svg" xmlns:xlink="http://www.w3.org/1999/xlink" width="21.531" height="24.816" viewBox="0 0 21.531 24.816"><defs><style>.a,.e{fill:#4d40ff;}.a{stroke:#4a3df5;}.b{opacity:0.17;isolation:isolate;clip-path:url(#a);}.c{fill:none;}.d,.e{stroke:none;}</style><clipPath id="a"><path class="a" d="M0,24.739l21.531.077V0L.553,4.45Z" transform="translate(0)"/></clipPath></defs><g class="b" transform="translate(0 0)"><g class="c" transform="translate(1.434 0.875)"><path class="d" d="M20.1,0a20.2,20.2,0,0,1,20.1,20.307A20.2,20.2,0,0,1,20.1,40.613,20.2,20.2,0,0,1,0,20.307,20.2,20.2,0,0,1,20.1,0Z"/><path class="e" d="M 20.09742164611816 0 C 31.19697761535645 0 40.19486618041992 9.091556549072266 40.19486618041992 20.30655670166016 C 40.19486618041992 31.52155685424805 31.19697761535645 40.61311340332031 20.09742164611816 40.61311340332031 C 8.997976303100586 40.61311340332031 -2.288818359375e-05 31.52155685424805 -2.288818359375e-05 20.30655670166016 C -2.288818359375e-05 9.091556549072266 8.997976303100586 0 20.09742164611816 0 Z"/></g></g></svg>