<svg xmlns="http://www.w3.org/2000/svg" xmlns:xlink="http://www.w3.org/1999/xlink" width="16.559" height="19.085" viewBox="0 0 16.559 19.085"><defs><style>.a,.e{fill:#4d40ff;}.a{stroke:#4a3df5;}.b{isolation:isolate;clip-path:url(#a);}.c{fill:none;}.d,.e{stroke:none;}</style><clipPath id="a"><path class="a" d="M0,19.025l16.559.06V0L.426,3.422Z" transform="translate(0)"/></clipPath></defs><g class="b" transform="translate(0 0)"><g class="c" transform="translate(1.103 0.673)"><path class="d" d="M15.456,0A15.537,15.537,0,0,1,30.912,15.617,15.537,15.537,0,0,1,15.456,31.233,15.537,15.537,0,0,1,0,15.617,15.537,15.537,0,0,1,15.456,0Z"/><path class="e" d="M 15.45584201812744 1.1444091796875e-05 C 23.99184226989746 1.1444091796875e-05 30.9117317199707 6.991788864135742 30.9117317199707 15.61667728424072 C 30.9117317199707 24.2415657043457 23.99184226989746 31.23334312438965 15.45584201812744 31.23334312438965 C 6.919841766357422 31.23334312438965 -4.76837158203125e-05 24.2415657043457 -4.76837158203125e-05 15.61667728424072 C -4.76837158203125e-05 6.991788864135742 6.919841766357422 1.1444091796875e-05 15.45584201812744 1.1444091796875e-05 Z"/></g></g></svg>