<svg xmlns="http://www.w3.org/2000/svg" xmlns:xlink="http://www.w3.org/1999/xlink" width="231" height="249" viewBox="0 0 231 249"><defs><style>.a,.d{fill:url(#a);}.b{clip-path:url(#c);}.c{clip-path:url(#d);}.d{opacity:0.45;}</style><linearGradient id="a" x1="0.5" x2="0.5" y2="1" gradientUnits="objectBoundingBox"><stop offset="0" stop-color="#fff"/><stop offset="0.431" stop-color="#bcceff"/><stop offset="1" stop-color="#648dff"/></linearGradient><clipPath id="c"><rect class="a" width="231" height="249" rx="61" transform="translate(109.665 221.5)"/></clipPath><clipPath id="d"><circle class="a" cx="143.067" cy="143.067" r="143.067"/></clipPath></defs><g class="b" transform="translate(-109.665 -221.5)"><g transform="translate(110 225.766)"><g class="c" transform="translate(0 164.454) rotate(-31)"><path class="d" d="M1092.317,3398.266c267.109,436.366,865.777-26.895,717.1-528.726s623.577-124.213,913.969-336.7C3102.846,2255.207,3198.716,616.93,3859.179,1458c0,0-477.479-1335.915-491.623-1334.982S2129.469,0,2129.469,0L1255.236,344.155S402.5,1413.431,362.982,1447.2,21.02,2481.84,1.5,2529.4s158.13,950.127,158.13,950.127S491.853,3940.175,525.5,3955" transform="translate(107.445 4238.375) rotate(-133)"/><path class="a" d="M143.067,0A143.067,143.067,0,1,1,0,143.067,143.067,143.067,0,0,1,143.067,0Z" transform="translate(-18.61 -95.378)"/></g><path class="a" d="M43.638,0A43.638,43.638,0,1,1,0,43.638,43.638,43.638,0,0,1,43.638,0Z" transform="translate(26.32)"/></g></g></svg>