<svg xmlns="http://www.w3.org/2000/svg" width="43.509" height="40.736" viewBox="0 0 43.509 40.736"><defs><style>.a{fill:#6e64ff;}.b{fill:#eae9e8;}.c{fill:#a4b3ff;}.d{fill:rgba(165,149,149,0.01);}.e{fill:none;}</style></defs><g transform="matrix(0.342, 0.94, -0.94, 0.342, 28.141, -7.991)"><path class="a" d="M119.743,49.955l-1.052-1.415a7.733,7.733,0,0,0-.167-5.468,4.519,4.519,0,0,1-.431-1.256c-.522-3.047,1.022-7.17,1.051-7.263.538-1.7.752-2.38-.548-3.005-1.415-.681-2.673.106-3.407,1.44a18.267,18.267,0,0,0-1.916,6.484L104.154,27.2a2.108,2.108,0,0,0-2.776-.571,2.081,2.081,0,0,0-.589,3.02l-1.064-1.43a2.111,2.111,0,0,0-2.895-.5,2.081,2.081,0,0,0-.473,2.944l1.091,1.468a2.081,2.081,0,0,0-3.032-.332,2.108,2.108,0,0,0-.282,2.849l2.016,2.712a2.081,2.081,0,0,0-3.061-.306,2.108,2.108,0,0,0-.253,2.823l9.918,13.339a7.717,7.717,0,0,0,4.007,2.8,4.171,4.171,0,0,1,2.223,1.764l.07.094a1.77,1.77,0,0,0,2.477.364l7.849-5.836A1.757,1.757,0,0,0,119.743,49.955Z" transform="translate(-80.687 -24.386)"/><g transform="translate(6.12 0.173)"><path class="b" d="M340.837,5.659A15.307,15.307,0,0,0,337.285.881a.506.506,0,1,1,.679-.751,16.318,16.318,0,0,1,3.787,5.094.506.506,0,0,1-.914.434Z" transform="translate(-315.005 0)"/><path class="b" d="M316.443,41.048a12.416,12.416,0,0,0-2.29-3.08.506.506,0,0,1,.709-.722,13.431,13.431,0,0,1,2.477,3.331.506.506,0,0,1-.9.471Z" transform="translate(-293.448 -34.598)"/><path class="b" d="M13.194,249.511a16.319,16.319,0,0,1-3.787-5.094.506.506,0,1,1,.914-.434,15.3,15.3,0,0,0,3.552,4.777.506.506,0,0,1-.679.751Z" transform="translate(-9.357 -227.252)"/><path class="b" d="M54.078,236.312a13.432,13.432,0,0,1-2.477-3.331.506.506,0,0,1,.9-.471,12.414,12.414,0,0,0,2.29,3.08.506.506,0,0,1-.709.722Z" transform="translate(-48.697 -216.571)"/></g><g transform="translate(11.719 1.951)"><path class="c" d="M145.413,44.871l6.632,8.919a.967.967,0,0,0,1.406.156h0a.971.971,0,0,0,.146-1.316l-5.408-7.273-.006-.009-.007-.01-.008-.011-.006-.007h0l-1.047-1.408a2.081,2.081,0,0,1-.009-2.471A2.076,2.076,0,0,0,145.413,44.871Z" transform="translate(-141.373 -40.418)"/><path class="c" d="M117.989,111.216a1,1,0,0,0,1.5.128h0a.926.926,0,0,0,.105-1.223l-5.756-7.741a2.126,2.126,0,0,1-.026-2.515,2.087,2.087,0,0,0-1.765,3.353Z" transform="translate(-110.315 -94.9)"/><path class="c" d="M110.793,197.888l-.07-.094a4.17,4.17,0,0,0-2.223-1.764,7.717,7.717,0,0,1-4.007-2.8l-9.918-13.339a2.125,2.125,0,0,1-.027-2.515,2.085,2.085,0,0,0-1.764,3.353l9.918,13.339a7.717,7.717,0,0,0,4.007,2.8,4.171,4.171,0,0,1,2.223,1.764l.07.094a1.77,1.77,0,0,0,2.477.364l.659-.49A1.767,1.767,0,0,1,110.793,197.888Z" transform="translate(-92.353 -167.178)"/><path class="c" d="M212.694,28.821h0a2.081,2.081,0,0,1-.006-2.474,2.028,2.028,0,0,0-1.077.226h0a2.109,2.109,0,0,0-.473.338h0a2.081,2.081,0,0,0-.3,2.653l.066.095,5.989,8.055a.976.976,0,0,0,1.456.124h0a1.063,1.063,0,0,0,.113-1.412Zm-.574-.773-.032-.042Z" transform="translate(-202.521 -26.342)"/><path class="c" d="M403.549,101.563a16.9,16.9,0,0,0-1.184,2.909h0a17.81,17.81,0,0,0-.731,3.576h0a.988.988,0,0,0,1.776-.543l.015-.295a18.263,18.263,0,0,1,1.916-6.484,4.144,4.144,0,0,1,.613-.851A2.836,2.836,0,0,0,403.549,101.563Z" transform="translate(-380.766 -94.913)"/></g><path class="a" d="M337.085,5.659A.506.506,0,0,0,338,5.225,16.316,16.316,0,0,0,334.212.131a.506.506,0,0,0-.679.751A15.305,15.305,0,0,1,337.085,5.659Z" transform="translate(-300.884 -2.829)"/><path class="a" d="M310.4,37.252a.506.506,0,0,0,.007.716,12.415,12.415,0,0,1,2.29,3.08.506.506,0,1,0,.9-.471,13.427,13.427,0,0,0-2.477-3.331A.506.506,0,0,0,310.4,37.252Z" transform="translate(-279.328 -37.426)"/><path class="a" d="M6.57,243.982a.506.506,0,0,0-.914.434,16.319,16.319,0,0,0,3.787,5.094.506.506,0,0,0,.679-.751,15.3,15.3,0,0,1-3.552-4.777Z" transform="translate(-4.243 -224.076)"/><path class="a" d="M48.746,232.511a.506.506,0,0,0-.9.471,13.433,13.433,0,0,0,2.477,3.331.506.506,0,0,0,.709-.722A12.418,12.418,0,0,1,48.746,232.511Z" transform="translate(-43.581 -213.397)"/><path class="d" d="M287.008,74.3a.506.506,0,0,0-.1.708l6.988,9.4a.506.506,0,0,0,.91-.254,17.785,17.785,0,0,1,1.855-6.288c.26-.473,1.227-1.958,2.744-1.228.958.461.783.729.278,2.416-.371,1.042-1.544,4.662-1.061,7.481.232,1.353.772,1.432.983,3.195a7.088,7.088,0,0,1-.076,2.148,4.233,4.233,0,0,1-.917,1.755.506.506,0,1,0,.778.647c.1-.116.184-.23.266-.343l.709.953a1.252,1.252,0,0,1-.257,1.75l-1.065.792a.507.507,0,0,0,.3.912c.286,0,.332-.161,1.366-.892a2.266,2.266,0,0,0,.466-3.166l-.9-1.213a8.435,8.435,0,0,0,.335-3.464c-.224-1.873-.806-2.167-.99-3.245-.453-2.644.767-6.271,1.016-6.971.01-.029.017-.048.019-.054.533-1.685.885-2.8-.811-3.614-1.518-.73-3.115-.082-4.069,1.652a18.909,18.909,0,0,0-1.809,5.427l-6.246-8.4A.506.506,0,0,0,287.008,74.3Z" transform="translate(-261.965 -69.021)"/><path class="e" d="M237.332,403.164a.506.506,0,0,0-.708-.1l-4.886,3.633a1.266,1.266,0,0,1-1.769-.26,4.8,4.8,0,0,0-2.555-2.042c-3.008-.894-4.022-3.148-4.593-3.761a.506.506,0,0,0-.812.6,9.467,9.467,0,0,0,5.117,4.127,3.888,3.888,0,0,1,2.031,1.675,2.279,2.279,0,0,0,3.185.468l4.886-3.633A.506.506,0,0,0,237.332,403.164Z" transform="translate(-201.449 -373.236)"/><path class="e" d="M89.22,20.821a2.585,2.585,0,0,0-4.137,3.071,2.6,2.6,0,0,0-2.1,4.165l.792,1.065a2.594,2.594,0,0,0-2.09,4.164l7.659,10.3a.506.506,0,0,0,.812-.6L82.5,32.681a1.579,1.579,0,0,1,1.4-2.54A1.556,1.556,0,0,1,85,30.769l4.6,6.193a.506.506,0,0,0,.812-.6L83.8,27.452A1.6,1.6,0,0,1,84,25.289a1.574,1.574,0,0,1,2.3.25l6.249,8.4a.506.506,0,1,0,.812-.6l-7.341-9.873a1.574,1.574,0,0,1,.358-2.228,1.609,1.609,0,0,1,2.2.386L96.284,32a.506.506,0,1,0,.812-.6l-6.647-8.941h0a1.575,1.575,0,0,1,.447-2.286A1.607,1.607,0,0,1,93,20.607l.72.969a.506.506,0,0,0,.812-.6L93.814,20A2.6,2.6,0,0,0,89.22,20.821Z" transform="translate(-70.195 -17.487)"/></g></svg>