<svg xmlns="http://www.w3.org/2000/svg" width="191.166" height="299.448" viewBox="0 0 191.166 299.448"><defs><style>.a{fill:#b28b67;}.a,.b,.c,.d,.e,.f,.g{fill-rule:evenodd;}.b{fill:#151840;}.c{fill:#e4e4e4;}.d{fill:#997659;}.e{fill:#202563;}.f,.h{fill:#fff;}.g{fill:#ff449b;}</style></defs><g transform="translate(-13 7)"><g transform="translate(13 -7)"><g transform="translate(85.063 25.588)"><g transform="translate(0 0)"><path class="a" d="M26.379,6.317c4.008,7.47,3.531,26.417-1.648,27.752-2.065.532-6.466-.772-10.944-3.471L16.6,50.484H0L5.714,23.852C2.527,20.112.37,15.528.731,10.391,1.769-4.409,22.371-1.153,26.379,6.317Z" transform="translate(0 0)"/></g></g><path class="b" d="M32.981,16.987c-2.188-.359-8.077-.605-9.164-.605-.694,0-1.446.159-1.858-.479-.337-.522-.213-1.4-.314-2.01-.117-.7-.282-1.4-.45-2.091a21.263,21.263,0,0,0-2.208-5.608,17.237,17.237,0,0,0-8.17-7.4,26.236,26.236,0,0,0-12.4-1.706C-6.038-2.548-10.068-1.078-14.271.3A26.585,26.585,0,0,1-26.661,1.5c-4.221-.648-7.41-2.936-10.97-5.107A20.437,20.437,0,0,0-49.75-6.952,23.339,23.339,0,0,0-60.8-2.761a18.035,18.035,0,0,0-7.129,8.088c-1.559,3.781-1.558,7.931,1.006,11.272,3.717,4.843,10.617,6.1,16.358,5.971a31.253,31.253,0,0,0,9.717-1.781c4.181-1.471,7.794-3.963,11.705-5.985a30.459,30.459,0,0,1,5.722-2.29c1.93-.545,3.831-.795,5.578.371a26.341,26.341,0,0,0,5.62,3.217A18.124,18.124,0,0,0-5.889,17.24c4.205-.033,8.351-1.343,12.435-2.22,3.331-.715,6.894-1.429,10.29-.741,1.417.287,3.486.88,4,2.352-8.613,1.561-12,12.213-9.568,20.033,1.311,4.22,9.188,9.154,12.251,6.935,1.94-1.406.762-3.251,0-4.469-1.46-2.333-1.96-5.33.742-6.954,2.33-1.4,4.781,1.926,4.827,1.922.64-.05,6.175-3.18,9.988-7.748,3.762.223,4.332-2.257,3.434-4.286S36,17.483,32.981,16.987Z" transform="translate(69 7)"/></g><g transform="translate(21.299 107.948)"><g transform="matrix(0.574, -0.819, 0.819, 0.574, 22.105, 78.161)"><path class="a" d="M71.958,0c-13.226,10.783-8.2,105.327-9.078,106.517-.589.794-62.881,13.5-62.881,13.5l1.793,7.317s72.866-3.616,77.112-9.025c6.08-7.743,15.03-86.613,15.03-86.613Z" transform="translate(0 0)"/></g><g transform="matrix(0.574, -0.819, 0.819, 0.574, 26.306, 71.029)"><path class="b" d="M0,117.15l3.158,11.785c36.21,4.158,60.081-.988,68.484-8.981S86.71,33.576,86.71,33.576L63.2,0C31.716,23.752,50.482,101.508,49.678,103.287S29.777,106.473,0,117.15Z" transform="translate(0 0)"/></g><g transform="matrix(0.94, 0.342, -0.342, 0.94, 118.183, 141.321)"><g transform="translate(0 0)"><path class="c" d="M3.056,3.472a1.383,1.383,0,0,0-1.911.7A15.879,15.879,0,0,0,0,8.834a44.428,44.428,0,0,0,.623,5.459H39.629s1.52-5.026-1.755-5.427-5.442-.724-5.442-.724L14.3.06a.692.692,0,0,0-.921.368L12.215,3.255A15.675,15.675,0,0,1,7.287,4.67,11.39,11.39,0,0,1,3.056,3.472Z"/></g></g><g transform="translate(1.657 19.216)"><path class="d" d="M98.353,0,62.568,85.911,27.4,158.542h8.3L126.482,0Z" transform="translate(-27.396)"/></g><g transform="translate(0 170.208)"><g transform="translate(0 0)"><path class="c" d="M4.056,22.8a1.383,1.383,0,0,0-1.911.7A15.879,15.879,0,0,0,1,28.166a44.428,44.428,0,0,0,.623,5.459H40.629s1.52-5.026-1.755-5.427-5.442-.724-5.442-.724L15.3,19.392a.692.692,0,0,0-.921.368l-1.165,2.827A15.675,15.675,0,0,1,8.287,24,11.39,11.39,0,0,1,4.056,22.8Z" transform="translate(-1 -19.332)"/></g></g><g transform="translate(4.833 19.216)"><path class="e" d="M31.989,143.454l18.439,3.458C64.684,125.952,124.349,40.008,130.891,0H89.842C68,28.922,45.578,122.147,31.989,143.454Z" transform="translate(-31.989 0)"/></g></g><g transform="translate(20.607 53.029)"><g transform="translate(0 34.025)"><path class="a" d="M137.547,68.174l25.059-11L175.323,47.2c1.222-.389,3.311-.507,1.082,2.748s-4.425,6.778-3.535,7.919c.39.5,1.1.539,1.869.581.981.054,2.047.113,2.62,1.156q1.02,1.855-13.042,4.438L145.549,78.424l-8-10.251L36.238,71.2,50.41,74.017l-22.929,42.23c-2.015,3.105-.657,8.45.264,12.074.142.561.274,1.08.382,1.544-2.363.55-3.178-.828-4.038-2.281-.971-1.641-2-3.378-5.376-2.539-1.3.324-2.565.762-3.8,1.19-4.253,1.478-8.159,2.835-12.361-1.038-.666-.614-1.154-2.534,1.118-3.518,5.659-2.453,14.02-7.046,15.375-8.829L36.238,71.2Z" transform="translate(-2 -47)"/></g><g transform="translate(87.06 3.672) rotate(5)"><path class="f" d="M0,1.543,5.868,0C19.945,11.452,27.885,41.228,36.883,44.474,45.39,47.544,56.659,42.867,70,36.717l5.044,9.057c-11.332,14.637-37,28.411-48.377,22.825C8.474,59.669,1.222,22.722,0,1.543Z" transform="translate(0 0)"/></g><g transform="translate(60.858 1.521)"><path class="g" d="M90,78.839h52.912c2.418,0,1.963-3.491,1.613-5.253-4.033-20.332-19.78-42.25-19.78-71.192L109.483,0C96.859,20.3,92.493,45.3,90,78.839Z" transform="translate(-90)"/></g><g transform="translate(16.598 0)"><path class="f" d="M27,97.427,80.407,13.01S85.391,2.744,89.067-.678s6.043,0,6.043,0,20.553,70.059,11.332,93.362H58.812c.754-11.367,6.479-35.109,6.479-35.109L38.091,99.6Z" transform="translate(-27 2.199)"/><path class="h" d="M26.6,96.67C26.392,22.585,91.088-2.2,91.088-2.2Z" transform="translate(-26.184 2.199)"/></g></g></g></svg>